<svg xmlns="http://www.w3.org/2000/svg" xmlns:xlink="http://www.w3.org/1999/xlink" width="103" zoomAndPan="magnify" viewBox="0 0 77.25 30.000001" height="40" preserveAspectRatio="xMidYMid meet" version="1.0"><defs><g/><clipPath id="e86ab0a8b5"><path d="M 21 9 L 24.21875 9 L 24.21875 12 L 21 12 Z M 21 9 " clip-rule="nonzero"/></clipPath><clipPath id="fb14246c19"><path d="M 10 0.769531 L 13 0.769531 L 13 3 L 10 3 Z M 10 0.769531 " clip-rule="nonzero"/></clipPath><clipPath id="ac032f4883"><path d="M 11 0.769531 L 12 0.769531 L 12 2 L 11 2 Z M 11 0.769531 " clip-rule="nonzero"/></clipPath><clipPath id="70f121d933"><path d="M 11 0.769531 L 13 0.769531 L 13 2 L 11 2 Z M 11 0.769531 " clip-rule="nonzero"/></clipPath><clipPath id="d6235387bc"><path d="M 22 15 L 24.21875 15 L 24.21875 19 L 22 19 Z M 22 15 " clip-rule="nonzero"/></clipPath><clipPath id="c959507401"><path d="M 1.71875 12 L 4 12 L 4 14 L 1.71875 14 Z M 1.71875 12 " clip-rule="nonzero"/></clipPath></defs><g fill="#ffffff" fill-opacity="1"><g transform="translate(25.790497, 11.457737)"><g><path d="M 7.03125 -5.8125 C 7.03125 -5.050781 6.875 -4.316406 6.5625 -3.609375 C 6.257812 -2.910156 5.847656 -2.289062 5.328125 -1.75 C 4.804688 -1.207031 4.195312 -0.773438 3.5 -0.453125 C 2.8125 -0.128906 2.082031 0.03125 1.3125 0.03125 L 1.296875 0.03125 C 1.140625 0.03125 1.007812 -0.0390625 0.90625 -0.1875 C 0.8125 -0.332031 0.726562 -0.507812 0.65625 -0.71875 C 0.59375 -0.9375 0.539062 -1.175781 0.5 -1.4375 C 0.46875 -1.707031 0.441406 -1.96875 0.421875 -2.21875 C 0.410156 -2.476562 0.40625 -2.707031 0.40625 -2.90625 C 0.40625 -3.113281 0.40625 -3.269531 0.40625 -3.375 C 0.40625 -3.664062 0.40625 -3.953125 0.40625 -4.234375 C 0.414062 -4.523438 0.429688 -4.816406 0.453125 -5.109375 C 0.453125 -5.203125 0.457031 -5.34375 0.46875 -5.53125 C 0.476562 -5.71875 0.492188 -5.925781 0.515625 -6.15625 C 0.535156 -6.382812 0.554688 -6.625 0.578125 -6.875 C 0.609375 -7.132812 0.632812 -7.375 0.65625 -7.59375 C 0.6875 -7.8125 0.71875 -8.003906 0.75 -8.171875 C 0.78125 -8.335938 0.816406 -8.453125 0.859375 -8.515625 C 0.972656 -8.703125 1.144531 -8.867188 1.375 -9.015625 C 1.613281 -9.171875 1.867188 -9.296875 2.140625 -9.390625 C 2.410156 -9.484375 2.679688 -9.550781 2.953125 -9.59375 C 3.234375 -9.644531 3.476562 -9.671875 3.6875 -9.671875 C 4.257812 -9.671875 4.753906 -9.5625 5.171875 -9.34375 C 5.585938 -9.132812 5.9375 -8.851562 6.21875 -8.5 C 6.5 -8.144531 6.703125 -7.734375 6.828125 -7.265625 C 6.960938 -6.804688 7.03125 -6.320312 7.03125 -5.8125 Z M 4.859375 -5.4375 C 4.859375 -5.625 4.820312 -5.816406 4.75 -6.015625 C 4.6875 -6.210938 4.59375 -6.390625 4.46875 -6.546875 C 4.34375 -6.710938 4.191406 -6.84375 4.015625 -6.9375 C 3.835938 -7.039062 3.644531 -7.09375 3.4375 -7.09375 C 3.25 -7.09375 3.0625 -7.050781 2.875 -6.96875 C 2.832031 -6.945312 2.789062 -6.867188 2.75 -6.734375 C 2.71875 -6.597656 2.691406 -6.4375 2.671875 -6.25 C 2.648438 -6.0625 2.628906 -5.851562 2.609375 -5.625 C 2.597656 -5.40625 2.585938 -5.191406 2.578125 -4.984375 C 2.578125 -4.785156 2.570312 -4.609375 2.5625 -4.453125 C 2.5625 -4.296875 2.5625 -4.191406 2.5625 -4.140625 C 2.5625 -4.054688 2.5625 -3.929688 2.5625 -3.765625 C 2.5625 -3.597656 2.566406 -3.429688 2.578125 -3.265625 C 2.597656 -3.097656 2.613281 -2.953125 2.625 -2.828125 C 2.644531 -2.710938 2.675781 -2.65625 2.71875 -2.65625 C 2.976562 -2.65625 3.234375 -2.753906 3.484375 -2.953125 C 3.742188 -3.160156 3.976562 -3.410156 4.1875 -3.703125 C 4.394531 -3.992188 4.554688 -4.296875 4.671875 -4.609375 C 4.796875 -4.929688 4.859375 -5.207031 4.859375 -5.4375 Z M 4.859375 -5.4375 "/></g></g></g><g fill="#ffffff" fill-opacity="1"><g transform="translate(33.675709, 11.457737)"><g><path d="M 3.1875 3.75 C 2.976562 3.75 2.742188 3.71875 2.484375 3.65625 C 2.222656 3.59375 1.972656 3.5 1.734375 3.375 C 1.503906 3.257812 1.3125 3.113281 1.15625 2.9375 C 1 2.769531 0.921875 2.570312 0.921875 2.34375 C 0.921875 2.257812 0.941406 2.175781 0.984375 2.09375 C 1.023438 2.007812 1.082031 1.929688 1.15625 1.859375 C 1.226562 1.796875 1.304688 1.742188 1.390625 1.703125 C 1.472656 1.671875 1.566406 1.65625 1.671875 1.65625 C 1.765625 1.65625 1.859375 1.671875 1.953125 1.703125 C 2.054688 1.734375 2.160156 1.769531 2.265625 1.8125 C 2.378906 1.851562 2.488281 1.890625 2.59375 1.921875 C 2.707031 1.953125 2.820312 1.96875 2.9375 1.96875 C 3.15625 1.96875 3.34375 1.894531 3.5 1.75 C 3.664062 1.601562 3.800781 1.410156 3.90625 1.171875 C 4.019531 0.941406 4.109375 0.679688 4.171875 0.390625 C 4.242188 0.109375 4.300781 -0.171875 4.34375 -0.453125 C 4.382812 -0.742188 4.410156 -1.015625 4.421875 -1.265625 C 4.441406 -1.515625 4.457031 -1.71875 4.46875 -1.875 C 4.164062 -1.414062 3.863281 -1.0625 3.5625 -0.8125 C 3.269531 -0.570312 2.910156 -0.453125 2.484375 -0.453125 C 2.148438 -0.453125 1.859375 -0.519531 1.609375 -0.65625 C 1.367188 -0.789062 1.160156 -0.96875 0.984375 -1.1875 C 0.816406 -1.414062 0.675781 -1.675781 0.5625 -1.96875 C 0.457031 -2.257812 0.375 -2.554688 0.3125 -2.859375 C 0.257812 -3.171875 0.222656 -3.472656 0.203125 -3.765625 C 0.191406 -4.066406 0.191406 -4.34375 0.203125 -4.59375 C 0.210938 -4.78125 0.234375 -5.023438 0.265625 -5.328125 C 0.304688 -5.640625 0.367188 -5.941406 0.453125 -6.234375 C 0.546875 -6.523438 0.671875 -6.769531 0.828125 -6.96875 C 0.984375 -7.175781 1.1875 -7.269531 1.4375 -7.25 C 1.59375 -7.238281 1.722656 -7.164062 1.828125 -7.03125 C 1.929688 -6.90625 2.015625 -6.742188 2.078125 -6.546875 C 2.148438 -6.347656 2.195312 -6.128906 2.21875 -5.890625 C 2.25 -5.648438 2.269531 -5.414062 2.28125 -5.1875 C 2.289062 -4.957031 2.289062 -4.742188 2.28125 -4.546875 C 2.28125 -4.359375 2.28125 -4.210938 2.28125 -4.109375 C 2.28125 -3.960938 2.285156 -3.816406 2.296875 -3.671875 C 2.304688 -3.523438 2.335938 -3.390625 2.390625 -3.265625 C 2.441406 -3.148438 2.519531 -3.054688 2.625 -2.984375 C 2.726562 -2.921875 2.878906 -2.890625 3.078125 -2.890625 C 3.304688 -2.890625 3.488281 -2.945312 3.625 -3.0625 C 3.757812 -3.175781 3.859375 -3.316406 3.921875 -3.484375 C 3.984375 -3.648438 4.019531 -3.828125 4.03125 -4.015625 C 4.050781 -4.210938 4.0625 -4.394531 4.0625 -4.5625 C 4.0625 -4.6875 4.0625 -4.832031 4.0625 -5 C 4.0625 -5.175781 4.0625 -5.359375 4.0625 -5.546875 C 4.070312 -5.734375 4.09375 -5.921875 4.125 -6.109375 C 4.15625 -6.296875 4.203125 -6.460938 4.265625 -6.609375 C 4.328125 -6.765625 4.410156 -6.890625 4.515625 -6.984375 C 4.628906 -7.078125 4.769531 -7.125 4.9375 -7.125 C 5.15625 -7.125 5.34375 -7.039062 5.5 -6.875 C 5.65625 -6.707031 5.785156 -6.488281 5.890625 -6.21875 C 5.992188 -5.945312 6.078125 -5.644531 6.140625 -5.3125 C 6.210938 -4.988281 6.265625 -4.664062 6.296875 -4.34375 C 6.328125 -4.019531 6.347656 -3.722656 6.359375 -3.453125 C 6.378906 -3.179688 6.390625 -2.96875 6.390625 -2.8125 C 6.390625 -2.445312 6.375 -2.035156 6.34375 -1.578125 C 6.320312 -1.117188 6.273438 -0.644531 6.203125 -0.15625 C 6.128906 0.320312 6.019531 0.796875 5.875 1.265625 C 5.726562 1.734375 5.535156 2.148438 5.296875 2.515625 C 5.054688 2.890625 4.765625 3.1875 4.421875 3.40625 C 4.078125 3.632812 3.664062 3.75 3.1875 3.75 Z M 3.1875 3.75 "/></g></g></g><g fill="#ffffff" fill-opacity="1"><g transform="translate(41.173911, 11.457737)"><g><path d="M 4.046875 0.359375 C 3.898438 0.359375 3.785156 0.289062 3.703125 0.15625 C 3.617188 0.03125 3.554688 -0.117188 3.515625 -0.296875 C 3.472656 -0.472656 3.441406 -0.644531 3.421875 -0.8125 C 3.410156 -0.988281 3.40625 -1.125 3.40625 -1.21875 C 3.40625 -1.476562 3.421875 -1.738281 3.453125 -2 C 3.484375 -2.257812 3.515625 -2.515625 3.546875 -2.765625 C 3.585938 -3.023438 3.625 -3.285156 3.65625 -3.546875 C 3.6875 -3.804688 3.703125 -4.066406 3.703125 -4.328125 C 3.703125 -4.429688 3.695312 -4.539062 3.6875 -4.65625 C 3.675781 -4.78125 3.65625 -4.894531 3.625 -5 C 3.601562 -5.101562 3.554688 -5.191406 3.484375 -5.265625 C 3.410156 -5.335938 3.320312 -5.375 3.21875 -5.375 C 3.132812 -5.375 3.046875 -5.3125 2.953125 -5.1875 C 2.859375 -5.0625 2.769531 -4.914062 2.6875 -4.75 C 2.601562 -4.59375 2.535156 -4.4375 2.484375 -4.28125 C 2.429688 -4.125 2.40625 -4.003906 2.40625 -3.921875 C 2.40625 -3.734375 2.40625 -3.539062 2.40625 -3.34375 C 2.40625 -3.15625 2.40625 -2.960938 2.40625 -2.765625 L 2.40625 -2.015625 C 2.40625 -1.859375 2.394531 -1.695312 2.375 -1.53125 C 2.351562 -1.375 2.328125 -1.21875 2.296875 -1.0625 C 2.273438 -0.90625 2.238281 -0.753906 2.1875 -0.609375 C 2.132812 -0.472656 2.066406 -0.347656 1.984375 -0.234375 C 1.898438 -0.128906 1.800781 -0.046875 1.6875 0.015625 C 1.570312 0.0859375 1.441406 0.125 1.296875 0.125 C 1.117188 0.125 0.972656 0.0703125 0.859375 -0.03125 C 0.753906 -0.144531 0.664062 -0.289062 0.59375 -0.46875 C 0.519531 -0.644531 0.46875 -0.84375 0.4375 -1.0625 C 0.414062 -1.28125 0.394531 -1.492188 0.375 -1.703125 C 0.363281 -1.921875 0.359375 -2.117188 0.359375 -2.296875 C 0.367188 -2.472656 0.375 -2.609375 0.375 -2.703125 L 0.375 -3.3125 C 0.375 -3.644531 0.363281 -3.96875 0.34375 -4.28125 C 0.332031 -4.601562 0.328125 -4.921875 0.328125 -5.234375 C 0.328125 -5.410156 0.328125 -5.628906 0.328125 -5.890625 C 0.335938 -6.160156 0.375 -6.421875 0.4375 -6.671875 C 0.5 -6.929688 0.597656 -7.148438 0.734375 -7.328125 C 0.867188 -7.515625 1.070312 -7.609375 1.34375 -7.609375 C 1.457031 -7.609375 1.5625 -7.566406 1.65625 -7.484375 C 1.757812 -7.410156 1.847656 -7.316406 1.921875 -7.203125 C 1.992188 -7.085938 2.050781 -6.960938 2.09375 -6.828125 C 2.144531 -6.703125 2.179688 -6.59375 2.203125 -6.5 C 2.296875 -6.625 2.398438 -6.738281 2.515625 -6.84375 C 2.628906 -6.957031 2.757812 -7.054688 2.90625 -7.140625 C 3.050781 -7.234375 3.210938 -7.304688 3.390625 -7.359375 C 3.578125 -7.410156 3.785156 -7.4375 4.015625 -7.4375 C 4.453125 -7.4375 4.789062 -7.328125 5.03125 -7.109375 C 5.28125 -6.898438 5.460938 -6.640625 5.578125 -6.328125 C 5.691406 -6.015625 5.757812 -5.675781 5.78125 -5.3125 C 5.8125 -4.957031 5.828125 -4.632812 5.828125 -4.34375 C 5.828125 -4.195312 5.8125 -3.976562 5.78125 -3.6875 C 5.757812 -3.394531 5.722656 -3.070312 5.671875 -2.71875 C 5.617188 -2.375 5.546875 -2.019531 5.453125 -1.65625 C 5.359375 -1.289062 5.242188 -0.957031 5.109375 -0.65625 C 4.984375 -0.351562 4.832031 -0.109375 4.65625 0.078125 C 4.476562 0.265625 4.273438 0.359375 4.046875 0.359375 Z M 4.046875 0.359375 "/></g></g></g><g fill="#ffffff" fill-opacity="1"><g transform="translate(48.001294, 11.457737)"><g><path d="M 5.875 -1.8125 C 5.875 -1.664062 5.863281 -1.46875 5.84375 -1.21875 C 5.832031 -0.96875 5.796875 -0.722656 5.734375 -0.484375 C 5.679688 -0.242188 5.585938 -0.0390625 5.453125 0.125 C 5.328125 0.300781 5.148438 0.390625 4.921875 0.390625 C 4.597656 0.390625 4.347656 0.285156 4.171875 0.078125 C 4.003906 -0.128906 3.925781 -0.390625 3.9375 -0.703125 C 3.664062 -0.453125 3.351562 -0.257812 3 -0.125 C 2.65625 0.0078125 2.300781 0.078125 1.9375 0.078125 C 1.6875 0.078125 1.445312 0.0195312 1.21875 -0.09375 C 1 -0.21875 0.800781 -0.375 0.625 -0.5625 C 0.457031 -0.757812 0.320312 -0.972656 0.21875 -1.203125 C 0.113281 -1.441406 0.0625 -1.675781 0.0625 -1.90625 C 0.0625 -2.320312 0.1875 -2.679688 0.4375 -2.984375 C 0.695312 -3.296875 1.007812 -3.5625 1.375 -3.78125 C 1.75 -4.007812 2.144531 -4.1875 2.5625 -4.3125 C 2.976562 -4.4375 3.347656 -4.519531 3.671875 -4.5625 C 3.671875 -4.613281 3.671875 -4.65625 3.671875 -4.6875 C 3.679688 -4.71875 3.6875 -4.753906 3.6875 -4.796875 C 3.6875 -5.066406 3.613281 -5.28125 3.46875 -5.4375 C 3.320312 -5.601562 3.117188 -5.6875 2.859375 -5.6875 C 2.640625 -5.6875 2.453125 -5.648438 2.296875 -5.578125 C 2.140625 -5.503906 1.992188 -5.421875 1.859375 -5.328125 C 1.722656 -5.242188 1.582031 -5.164062 1.4375 -5.09375 C 1.300781 -5.019531 1.148438 -4.984375 0.984375 -4.984375 C 0.796875 -4.984375 0.632812 -5.039062 0.5 -5.15625 C 0.363281 -5.28125 0.296875 -5.4375 0.296875 -5.625 C 0.296875 -5.90625 0.378906 -6.160156 0.546875 -6.390625 C 0.710938 -6.628906 0.921875 -6.828125 1.171875 -6.984375 C 1.429688 -7.148438 1.707031 -7.273438 2 -7.359375 C 2.300781 -7.453125 2.578125 -7.5 2.828125 -7.5 C 3.054688 -7.5 3.285156 -7.46875 3.515625 -7.40625 C 3.753906 -7.351562 3.976562 -7.269531 4.1875 -7.15625 C 4.394531 -7.039062 4.582031 -6.898438 4.75 -6.734375 C 4.914062 -6.566406 5.050781 -6.367188 5.15625 -6.140625 C 5.3125 -5.828125 5.4375 -5.488281 5.53125 -5.125 C 5.625 -4.769531 5.695312 -4.40625 5.75 -4.03125 C 5.800781 -3.65625 5.832031 -3.28125 5.84375 -2.90625 C 5.863281 -2.53125 5.875 -2.164062 5.875 -1.8125 Z M 3.8125 -2.234375 L 3.765625 -3.109375 C 3.753906 -3.109375 3.738281 -3.109375 3.71875 -3.109375 C 3.695312 -3.117188 3.679688 -3.125 3.671875 -3.125 C 3.554688 -3.125 3.414062 -3.09375 3.25 -3.03125 C 3.082031 -2.976562 2.921875 -2.898438 2.765625 -2.796875 C 2.609375 -2.703125 2.472656 -2.59375 2.359375 -2.46875 C 2.253906 -2.351562 2.203125 -2.234375 2.203125 -2.109375 C 2.203125 -1.984375 2.242188 -1.898438 2.328125 -1.859375 C 2.421875 -1.816406 2.523438 -1.796875 2.640625 -1.796875 C 2.828125 -1.796875 3.023438 -1.84375 3.234375 -1.9375 C 3.453125 -2.039062 3.644531 -2.140625 3.8125 -2.234375 Z M 3.8125 -2.234375 "/></g></g></g><g fill="#ffffff" fill-opacity="1"><g transform="translate(54.918981, 11.457737)"><g><path d="M 8.21875 -4.265625 C 8.21875 -4.097656 8.21875 -3.875 8.21875 -3.59375 C 8.21875 -3.3125 8.210938 -3.003906 8.203125 -2.671875 C 8.191406 -2.347656 8.164062 -2.019531 8.125 -1.6875 C 8.082031 -1.363281 8.015625 -1.066406 7.921875 -0.796875 C 7.828125 -0.535156 7.710938 -0.316406 7.578125 -0.140625 C 7.441406 0.0234375 7.265625 0.109375 7.046875 0.109375 C 6.859375 0.109375 6.710938 0.03125 6.609375 -0.125 C 6.515625 -0.28125 6.445312 -0.460938 6.40625 -0.671875 C 6.363281 -0.890625 6.335938 -1.109375 6.328125 -1.328125 C 6.328125 -1.554688 6.328125 -1.738281 6.328125 -1.875 C 6.328125 -2.257812 6.335938 -2.632812 6.359375 -3 C 6.390625 -3.375 6.40625 -3.753906 6.40625 -4.140625 C 6.40625 -4.179688 6.40625 -4.257812 6.40625 -4.375 C 6.40625 -4.488281 6.394531 -4.597656 6.375 -4.703125 C 6.351562 -4.816406 6.320312 -4.914062 6.28125 -5 C 6.25 -5.09375 6.195312 -5.140625 6.125 -5.140625 C 5.96875 -5.140625 5.84375 -5.054688 5.75 -4.890625 C 5.65625 -4.734375 5.578125 -4.546875 5.515625 -4.328125 C 5.453125 -4.117188 5.40625 -3.90625 5.375 -3.6875 C 5.351562 -3.476562 5.335938 -3.328125 5.328125 -3.234375 C 5.316406 -3.117188 5.300781 -2.945312 5.28125 -2.71875 C 5.269531 -2.5 5.253906 -2.253906 5.234375 -1.984375 C 5.210938 -1.722656 5.175781 -1.453125 5.125 -1.171875 C 5.082031 -0.890625 5.023438 -0.632812 4.953125 -0.40625 C 4.878906 -0.175781 4.785156 0.0078125 4.671875 0.15625 C 4.554688 0.300781 4.421875 0.375 4.265625 0.375 C 4.054688 0.375 3.894531 0.28125 3.78125 0.09375 C 3.664062 -0.0820312 3.582031 -0.289062 3.53125 -0.53125 C 3.476562 -0.769531 3.445312 -1.015625 3.4375 -1.265625 C 3.425781 -1.515625 3.421875 -1.707031 3.421875 -1.84375 C 3.421875 -1.988281 3.421875 -2.128906 3.421875 -2.265625 C 3.429688 -2.410156 3.4375 -2.554688 3.4375 -2.703125 C 3.4375 -2.753906 3.4375 -2.847656 3.4375 -2.984375 C 3.4375 -3.128906 3.429688 -3.285156 3.421875 -3.453125 C 3.421875 -3.617188 3.410156 -3.789062 3.390625 -3.96875 C 3.378906 -4.15625 3.363281 -4.320312 3.34375 -4.46875 C 3.320312 -4.625 3.285156 -4.75 3.234375 -4.84375 C 3.179688 -4.9375 3.117188 -4.984375 3.046875 -4.984375 C 2.929688 -4.984375 2.828125 -4.910156 2.734375 -4.765625 C 2.640625 -4.628906 2.554688 -4.460938 2.484375 -4.265625 C 2.421875 -4.066406 2.367188 -3.875 2.328125 -3.6875 C 2.285156 -3.5 2.265625 -3.363281 2.265625 -3.28125 L 2.265625 -3.203125 C 2.265625 -2.785156 2.289062 -2.378906 2.34375 -1.984375 C 2.394531 -1.585938 2.421875 -1.1875 2.421875 -0.78125 C 2.421875 -0.53125 2.34375 -0.304688 2.1875 -0.109375 C 2.039062 0.0859375 1.828125 0.1875 1.546875 0.1875 C 1.347656 0.1875 1.179688 0.113281 1.046875 -0.03125 C 0.921875 -0.1875 0.816406 -0.382812 0.734375 -0.625 C 0.648438 -0.863281 0.582031 -1.125 0.53125 -1.40625 C 0.488281 -1.695312 0.457031 -1.984375 0.4375 -2.265625 C 0.414062 -2.546875 0.40625 -2.800781 0.40625 -3.03125 C 0.40625 -3.257812 0.40625 -3.425781 0.40625 -3.53125 C 0.40625 -3.664062 0.398438 -3.859375 0.390625 -4.109375 C 0.390625 -4.359375 0.394531 -4.628906 0.40625 -4.921875 C 0.414062 -5.210938 0.4375 -5.507812 0.46875 -5.8125 C 0.507812 -6.125 0.566406 -6.398438 0.640625 -6.640625 C 0.722656 -6.890625 0.828125 -7.09375 0.953125 -7.25 C 1.078125 -7.414062 1.238281 -7.5 1.4375 -7.5 C 1.65625 -7.5 1.832031 -7.4375 1.96875 -7.3125 C 2.113281 -7.195312 2.1875 -7.019531 2.1875 -6.78125 C 2.1875 -6.726562 2.1875 -6.675781 2.1875 -6.625 C 2.1875 -6.570312 2.179688 -6.523438 2.171875 -6.484375 C 2.265625 -6.617188 2.378906 -6.753906 2.515625 -6.890625 C 2.648438 -7.035156 2.796875 -7.164062 2.953125 -7.28125 C 3.117188 -7.40625 3.289062 -7.503906 3.46875 -7.578125 C 3.65625 -7.648438 3.835938 -7.6875 4.015625 -7.6875 C 4.179688 -7.6875 4.332031 -7.632812 4.46875 -7.53125 C 4.613281 -7.4375 4.738281 -7.316406 4.84375 -7.171875 C 4.945312 -7.035156 5.03125 -6.882812 5.09375 -6.71875 C 5.164062 -6.5625 5.210938 -6.410156 5.234375 -6.265625 C 5.328125 -6.421875 5.4375 -6.578125 5.5625 -6.734375 C 5.6875 -6.890625 5.820312 -7.023438 5.96875 -7.140625 C 6.113281 -7.265625 6.273438 -7.363281 6.453125 -7.4375 C 6.628906 -7.519531 6.8125 -7.5625 7 -7.5625 C 7.175781 -7.5625 7.328125 -7.492188 7.453125 -7.359375 C 7.585938 -7.234375 7.703125 -7.070312 7.796875 -6.875 C 7.890625 -6.675781 7.960938 -6.445312 8.015625 -6.1875 C 8.066406 -5.9375 8.109375 -5.6875 8.140625 -5.4375 C 8.179688 -5.195312 8.203125 -4.96875 8.203125 -4.75 C 8.210938 -4.539062 8.21875 -4.378906 8.21875 -4.265625 Z M 8.21875 -4.265625 "/></g></g></g><g fill="#ffffff" fill-opacity="1"><g transform="translate(64.261931, 11.457737)"><g><path d="M 2.84375 0.375 C 2.40625 0.375 2.019531 0.253906 1.6875 0.015625 C 1.363281 -0.210938 1.085938 -0.503906 0.859375 -0.859375 C 0.640625 -1.222656 0.472656 -1.625 0.359375 -2.0625 C 0.242188 -2.507812 0.1875 -2.945312 0.1875 -3.375 C 0.1875 -3.832031 0.242188 -4.304688 0.359375 -4.796875 C 0.472656 -5.285156 0.644531 -5.726562 0.875 -6.125 C 1.101562 -6.519531 1.398438 -6.84375 1.765625 -7.09375 C 2.128906 -7.351562 2.5625 -7.484375 3.0625 -7.484375 C 3.539062 -7.484375 3.945312 -7.351562 4.28125 -7.09375 C 4.625 -6.832031 4.898438 -6.503906 5.109375 -6.109375 C 5.316406 -5.722656 5.460938 -5.296875 5.546875 -4.828125 C 5.640625 -4.359375 5.671875 -3.921875 5.640625 -3.515625 C 5.617188 -3.054688 5.546875 -2.59375 5.421875 -2.125 C 5.304688 -1.664062 5.132812 -1.25 4.90625 -0.875 C 4.6875 -0.507812 4.40625 -0.210938 4.0625 0.015625 C 3.71875 0.253906 3.3125 0.375 2.84375 0.375 Z M 2.96875 -5.453125 C 2.84375 -5.453125 2.726562 -5.382812 2.625 -5.25 C 2.53125 -5.113281 2.445312 -4.945312 2.375 -4.75 C 2.3125 -4.550781 2.265625 -4.34375 2.234375 -4.125 C 2.203125 -3.90625 2.1875 -3.710938 2.1875 -3.546875 C 2.1875 -3.335938 2.203125 -3.113281 2.234375 -2.875 C 2.273438 -2.632812 2.328125 -2.410156 2.390625 -2.203125 C 2.460938 -2.003906 2.546875 -1.835938 2.640625 -1.703125 C 2.742188 -1.578125 2.863281 -1.515625 3 -1.515625 C 3.132812 -1.515625 3.25 -1.578125 3.34375 -1.703125 C 3.445312 -1.828125 3.523438 -1.988281 3.578125 -2.1875 C 3.640625 -2.382812 3.679688 -2.601562 3.703125 -2.84375 C 3.734375 -3.082031 3.75 -3.304688 3.75 -3.515625 C 3.75 -3.703125 3.734375 -3.910156 3.703125 -4.140625 C 3.671875 -4.367188 3.617188 -4.582031 3.546875 -4.78125 C 3.484375 -4.976562 3.398438 -5.140625 3.296875 -5.265625 C 3.203125 -5.390625 3.09375 -5.453125 2.96875 -5.453125 Z M 2.96875 -5.453125 "/></g></g></g><g fill="#ffffff" fill-opacity="1"><g transform="translate(25.790497, 25.533697)"><g><path d="M 6.09375 -6.578125 C 6.09375 -6.410156 6.070312 -6.234375 6.03125 -6.046875 C 6 -5.867188 5.9375 -5.703125 5.84375 -5.546875 C 5.757812 -5.390625 5.648438 -5.257812 5.515625 -5.15625 C 5.378906 -5.0625 5.210938 -5.015625 5.015625 -5.015625 C 4.710938 -5.015625 4.488281 -5.066406 4.34375 -5.171875 C 4.195312 -5.273438 4.09375 -5.410156 4.03125 -5.578125 C 3.96875 -5.742188 3.929688 -5.914062 3.921875 -6.09375 C 3.921875 -6.28125 3.914062 -6.457031 3.90625 -6.625 C 3.90625 -6.789062 3.878906 -6.925781 3.828125 -7.03125 C 3.773438 -7.132812 3.675781 -7.1875 3.53125 -7.1875 C 3.351562 -7.1875 3.195312 -7.125 3.0625 -7 C 2.9375 -6.875 2.828125 -6.710938 2.734375 -6.515625 C 2.640625 -6.316406 2.5625 -6.09375 2.5 -5.84375 C 2.4375 -5.59375 2.382812 -5.34375 2.34375 -5.09375 C 2.300781 -4.851562 2.269531 -4.625 2.25 -4.40625 C 2.238281 -4.1875 2.234375 -4.007812 2.234375 -3.875 C 2.234375 -3.695312 2.238281 -3.484375 2.25 -3.234375 C 2.257812 -2.984375 2.300781 -2.742188 2.375 -2.515625 C 2.445312 -2.285156 2.550781 -2.085938 2.6875 -1.921875 C 2.820312 -1.765625 3.019531 -1.6875 3.28125 -1.6875 C 3.445312 -1.6875 3.613281 -1.707031 3.78125 -1.75 C 3.945312 -1.789062 4.109375 -1.835938 4.265625 -1.890625 C 4.429688 -1.953125 4.597656 -2.003906 4.765625 -2.046875 C 4.929688 -2.085938 5.101562 -2.109375 5.28125 -2.109375 C 5.476562 -2.109375 5.640625 -2.03125 5.765625 -1.875 C 5.898438 -1.71875 5.96875 -1.539062 5.96875 -1.34375 C 5.96875 -1.0625 5.878906 -0.800781 5.703125 -0.5625 C 5.535156 -0.332031 5.320312 -0.128906 5.0625 0.046875 C 4.8125 0.234375 4.535156 0.375 4.234375 0.46875 C 3.941406 0.570312 3.675781 0.625 3.4375 0.625 C 2.8125 0.625 2.285156 0.484375 1.859375 0.203125 C 1.429688 -0.0664062 1.082031 -0.421875 0.8125 -0.859375 C 0.539062 -1.304688 0.347656 -1.800781 0.234375 -2.34375 C 0.117188 -2.894531 0.0625 -3.441406 0.0625 -3.984375 C 0.0625 -4.347656 0.09375 -4.742188 0.15625 -5.171875 C 0.226562 -5.609375 0.332031 -6.039062 0.46875 -6.46875 C 0.613281 -6.90625 0.789062 -7.328125 1 -7.734375 C 1.207031 -8.140625 1.453125 -8.492188 1.734375 -8.796875 C 2.023438 -9.109375 2.347656 -9.359375 2.703125 -9.546875 C 3.054688 -9.742188 3.453125 -9.84375 3.890625 -9.84375 C 4.304688 -9.84375 4.65625 -9.734375 4.9375 -9.515625 C 5.226562 -9.304688 5.457031 -9.039062 5.625 -8.71875 C 5.800781 -8.394531 5.921875 -8.039062 5.984375 -7.65625 C 6.054688 -7.28125 6.09375 -6.921875 6.09375 -6.578125 Z M 6.09375 -6.578125 "/></g></g></g><g fill="#ffffff" fill-opacity="1"><g transform="translate(32.669482, 25.533697)"><g><path d="M 5.875 -1.8125 C 5.875 -1.664062 5.863281 -1.46875 5.84375 -1.21875 C 5.832031 -0.96875 5.796875 -0.722656 5.734375 -0.484375 C 5.679688 -0.242188 5.585938 -0.0390625 5.453125 0.125 C 5.328125 0.300781 5.148438 0.390625 4.921875 0.390625 C 4.597656 0.390625 4.347656 0.285156 4.171875 0.078125 C 4.003906 -0.128906 3.925781 -0.390625 3.9375 -0.703125 C 3.664062 -0.453125 3.351562 -0.257812 3 -0.125 C 2.65625 0.0078125 2.300781 0.078125 1.9375 0.078125 C 1.6875 0.078125 1.445312 0.0195312 1.21875 -0.09375 C 1 -0.21875 0.800781 -0.375 0.625 -0.5625 C 0.457031 -0.757812 0.320312 -0.972656 0.21875 -1.203125 C 0.113281 -1.441406 0.0625 -1.675781 0.0625 -1.90625 C 0.0625 -2.320312 0.1875 -2.679688 0.4375 -2.984375 C 0.695312 -3.296875 1.007812 -3.5625 1.375 -3.78125 C 1.75 -4.007812 2.144531 -4.1875 2.5625 -4.3125 C 2.976562 -4.4375 3.347656 -4.519531 3.671875 -4.5625 C 3.671875 -4.613281 3.671875 -4.65625 3.671875 -4.6875 C 3.679688 -4.71875 3.6875 -4.753906 3.6875 -4.796875 C 3.6875 -5.066406 3.613281 -5.28125 3.46875 -5.4375 C 3.320312 -5.601562 3.117188 -5.6875 2.859375 -5.6875 C 2.640625 -5.6875 2.453125 -5.648438 2.296875 -5.578125 C 2.140625 -5.503906 1.992188 -5.421875 1.859375 -5.328125 C 1.722656 -5.242188 1.582031 -5.164062 1.4375 -5.09375 C 1.300781 -5.019531 1.148438 -4.984375 0.984375 -4.984375 C 0.796875 -4.984375 0.632812 -5.039062 0.5 -5.15625 C 0.363281 -5.28125 0.296875 -5.4375 0.296875 -5.625 C 0.296875 -5.90625 0.378906 -6.160156 0.546875 -6.390625 C 0.710938 -6.628906 0.921875 -6.828125 1.171875 -6.984375 C 1.429688 -7.148438 1.707031 -7.273438 2 -7.359375 C 2.300781 -7.453125 2.578125 -7.5 2.828125 -7.5 C 3.054688 -7.5 3.285156 -7.46875 3.515625 -7.40625 C 3.753906 -7.351562 3.976562 -7.269531 4.1875 -7.15625 C 4.394531 -7.039062 4.582031 -6.898438 4.75 -6.734375 C 4.914062 -6.566406 5.050781 -6.367188 5.15625 -6.140625 C 5.3125 -5.828125 5.4375 -5.488281 5.53125 -5.125 C 5.625 -4.769531 5.695312 -4.40625 5.75 -4.03125 C 5.800781 -3.65625 5.832031 -3.28125 5.84375 -2.90625 C 5.863281 -2.53125 5.875 -2.164062 5.875 -1.8125 Z M 3.8125 -2.234375 L 3.765625 -3.109375 C 3.753906 -3.109375 3.738281 -3.109375 3.71875 -3.109375 C 3.695312 -3.117188 3.679688 -3.125 3.671875 -3.125 C 3.554688 -3.125 3.414062 -3.09375 3.25 -3.03125 C 3.082031 -2.976562 2.921875 -2.898438 2.765625 -2.796875 C 2.609375 -2.703125 2.472656 -2.59375 2.359375 -2.46875 C 2.253906 -2.351562 2.203125 -2.234375 2.203125 -2.109375 C 2.203125 -1.984375 2.242188 -1.898438 2.328125 -1.859375 C 2.421875 -1.816406 2.523438 -1.796875 2.640625 -1.796875 C 2.828125 -1.796875 3.023438 -1.84375 3.234375 -1.9375 C 3.453125 -2.039062 3.644531 -2.140625 3.8125 -2.234375 Z M 3.8125 -2.234375 "/></g></g></g><g fill="#ffffff" fill-opacity="1"><g transform="translate(39.587167, 25.533697)"><g><path d="M 4.859375 -4.828125 C 4.742188 -4.816406 4.640625 -4.828125 4.546875 -4.859375 C 4.460938 -4.890625 4.378906 -4.921875 4.296875 -4.953125 C 4.222656 -4.992188 4.144531 -5.023438 4.0625 -5.046875 C 3.988281 -5.078125 3.90625 -5.09375 3.8125 -5.09375 C 3.632812 -5.082031 3.476562 -5.03125 3.34375 -4.9375 C 3.21875 -4.851562 3.097656 -4.742188 2.984375 -4.609375 C 2.878906 -4.484375 2.785156 -4.34375 2.703125 -4.1875 C 2.628906 -4.03125 2.570312 -3.875 2.53125 -3.71875 C 2.5 -3.613281 2.476562 -3.457031 2.46875 -3.25 C 2.457031 -3.039062 2.453125 -2.8125 2.453125 -2.5625 C 2.441406 -2.3125 2.4375 -2.070312 2.4375 -1.84375 C 2.4375 -1.625 2.425781 -1.453125 2.40625 -1.328125 C 2.40625 -1.191406 2.382812 -1.03125 2.34375 -0.84375 C 2.3125 -0.65625 2.257812 -0.476562 2.1875 -0.3125 C 2.113281 -0.15625 2.015625 -0.0195312 1.890625 0.09375 C 1.773438 0.207031 1.625 0.265625 1.4375 0.265625 C 1.289062 0.265625 1.160156 0.21875 1.046875 0.125 C 0.941406 0.0390625 0.851562 -0.0664062 0.78125 -0.203125 C 0.707031 -0.347656 0.644531 -0.515625 0.59375 -0.703125 C 0.550781 -0.898438 0.515625 -1.097656 0.484375 -1.296875 C 0.460938 -1.492188 0.441406 -1.695312 0.421875 -1.90625 C 0.410156 -2.113281 0.40625 -2.3125 0.40625 -2.5 C 0.40625 -2.6875 0.40625 -2.851562 0.40625 -3 C 0.40625 -3.15625 0.40625 -3.28125 0.40625 -3.375 C 0.40625 -3.675781 0.390625 -3.976562 0.359375 -4.28125 C 0.335938 -4.59375 0.328125 -4.898438 0.328125 -5.203125 C 0.328125 -5.390625 0.335938 -5.597656 0.359375 -5.828125 C 0.378906 -6.066406 0.425781 -6.285156 0.5 -6.484375 C 0.582031 -6.691406 0.695312 -6.863281 0.84375 -7 C 1 -7.132812 1.207031 -7.203125 1.46875 -7.203125 C 1.613281 -7.203125 1.738281 -7.15625 1.84375 -7.0625 C 1.945312 -6.96875 2.03125 -6.847656 2.09375 -6.703125 C 2.15625 -6.566406 2.203125 -6.421875 2.234375 -6.265625 C 2.273438 -6.117188 2.300781 -5.976562 2.3125 -5.84375 C 2.519531 -6.175781 2.75 -6.445312 3 -6.65625 C 3.257812 -6.875 3.597656 -6.992188 4.015625 -7.015625 C 4.222656 -7.015625 4.425781 -6.988281 4.625 -6.9375 C 4.832031 -6.894531 5.019531 -6.820312 5.1875 -6.71875 C 5.351562 -6.613281 5.488281 -6.472656 5.59375 -6.296875 C 5.695312 -6.128906 5.753906 -5.925781 5.765625 -5.6875 C 5.785156 -5.414062 5.703125 -5.207031 5.515625 -5.0625 C 5.335938 -4.914062 5.117188 -4.835938 4.859375 -4.828125 Z M 4.859375 -4.828125 "/></g></g></g><g fill="#ffffff" fill-opacity="1"><g transform="translate(45.821135, 25.533697)"><g><path d="M 5.796875 -2.296875 C 5.796875 -2.003906 5.703125 -1.71875 5.515625 -1.4375 C 5.328125 -1.15625 5.09375 -0.90625 4.8125 -0.6875 C 4.539062 -0.46875 4.242188 -0.289062 3.921875 -0.15625 C 3.609375 -0.03125 3.316406 0.03125 3.046875 0.03125 C 2.585938 0.03125 2.179688 -0.078125 1.828125 -0.296875 C 1.472656 -0.523438 1.171875 -0.816406 0.921875 -1.171875 C 0.679688 -1.523438 0.5 -1.914062 0.375 -2.34375 C 0.25 -2.769531 0.1875 -3.1875 0.1875 -3.59375 C 0.1875 -4.019531 0.25 -4.476562 0.375 -4.96875 C 0.5 -5.457031 0.679688 -5.90625 0.921875 -6.3125 C 1.171875 -6.726562 1.476562 -7.070312 1.84375 -7.34375 C 2.21875 -7.625 2.664062 -7.765625 3.1875 -7.765625 C 3.476562 -7.765625 3.753906 -7.710938 4.015625 -7.609375 C 4.285156 -7.515625 4.519531 -7.378906 4.71875 -7.203125 C 4.914062 -7.023438 5.078125 -6.8125 5.203125 -6.5625 C 5.328125 -6.3125 5.390625 -6.03125 5.390625 -5.71875 C 5.390625 -5.3125 5.300781 -4.929688 5.125 -4.578125 C 4.945312 -4.222656 4.71875 -3.914062 4.4375 -3.65625 C 4.15625 -3.40625 3.828125 -3.195312 3.453125 -3.03125 C 3.085938 -2.875 2.710938 -2.789062 2.328125 -2.78125 C 2.359375 -2.53125 2.457031 -2.347656 2.625 -2.234375 C 2.789062 -2.117188 2.992188 -2.0625 3.234375 -2.0625 C 3.398438 -2.0625 3.5625 -2.101562 3.71875 -2.1875 C 3.882812 -2.28125 4.046875 -2.378906 4.203125 -2.484375 C 4.359375 -2.585938 4.507812 -2.679688 4.65625 -2.765625 C 4.8125 -2.859375 4.96875 -2.90625 5.125 -2.90625 C 5.300781 -2.90625 5.457031 -2.847656 5.59375 -2.734375 C 5.726562 -2.617188 5.796875 -2.472656 5.796875 -2.296875 Z M 3.703125 -5.453125 C 3.703125 -5.566406 3.671875 -5.679688 3.609375 -5.796875 C 3.554688 -5.921875 3.460938 -5.984375 3.328125 -5.984375 C 3.140625 -5.984375 2.976562 -5.929688 2.84375 -5.828125 C 2.71875 -5.734375 2.613281 -5.609375 2.53125 -5.453125 C 2.445312 -5.304688 2.378906 -5.144531 2.328125 -4.96875 C 2.285156 -4.800781 2.257812 -4.644531 2.25 -4.5 C 2.363281 -4.53125 2.503906 -4.566406 2.671875 -4.609375 C 2.847656 -4.648438 3.007812 -4.707031 3.15625 -4.78125 C 3.300781 -4.851562 3.425781 -4.945312 3.53125 -5.0625 C 3.644531 -5.175781 3.703125 -5.304688 3.703125 -5.453125 Z M 3.703125 -5.453125 "/></g></g></g><g fill="#ffffff" fill-opacity="1"><g transform="translate(52.403411, 25.533697)"><g><path d="M 5.796875 -2.296875 C 5.796875 -2.003906 5.703125 -1.71875 5.515625 -1.4375 C 5.328125 -1.15625 5.09375 -0.90625 4.8125 -0.6875 C 4.539062 -0.46875 4.242188 -0.289062 3.921875 -0.15625 C 3.609375 -0.03125 3.316406 0.03125 3.046875 0.03125 C 2.585938 0.03125 2.179688 -0.078125 1.828125 -0.296875 C 1.472656 -0.523438 1.171875 -0.816406 0.921875 -1.171875 C 0.679688 -1.523438 0.5 -1.914062 0.375 -2.34375 C 0.25 -2.769531 0.1875 -3.1875 0.1875 -3.59375 C 0.1875 -4.019531 0.25 -4.476562 0.375 -4.96875 C 0.5 -5.457031 0.679688 -5.90625 0.921875 -6.3125 C 1.171875 -6.726562 1.476562 -7.070312 1.84375 -7.34375 C 2.21875 -7.625 2.664062 -7.765625 3.1875 -7.765625 C 3.476562 -7.765625 3.753906 -7.710938 4.015625 -7.609375 C 4.285156 -7.515625 4.519531 -7.378906 4.71875 -7.203125 C 4.914062 -7.023438 5.078125 -6.8125 5.203125 -6.5625 C 5.328125 -6.3125 5.390625 -6.03125 5.390625 -5.71875 C 5.390625 -5.3125 5.300781 -4.929688 5.125 -4.578125 C 4.945312 -4.222656 4.71875 -3.914062 4.4375 -3.65625 C 4.15625 -3.40625 3.828125 -3.195312 3.453125 -3.03125 C 3.085938 -2.875 2.710938 -2.789062 2.328125 -2.78125 C 2.359375 -2.53125 2.457031 -2.347656 2.625 -2.234375 C 2.789062 -2.117188 2.992188 -2.0625 3.234375 -2.0625 C 3.398438 -2.0625 3.5625 -2.101562 3.71875 -2.1875 C 3.882812 -2.28125 4.046875 -2.378906 4.203125 -2.484375 C 4.359375 -2.585938 4.507812 -2.679688 4.65625 -2.765625 C 4.8125 -2.859375 4.96875 -2.90625 5.125 -2.90625 C 5.300781 -2.90625 5.457031 -2.847656 5.59375 -2.734375 C 5.726562 -2.617188 5.796875 -2.472656 5.796875 -2.296875 Z M 3.703125 -5.453125 C 3.703125 -5.566406 3.671875 -5.679688 3.609375 -5.796875 C 3.554688 -5.921875 3.460938 -5.984375 3.328125 -5.984375 C 3.140625 -5.984375 2.976562 -5.929688 2.84375 -5.828125 C 2.71875 -5.734375 2.613281 -5.609375 2.53125 -5.453125 C 2.445312 -5.304688 2.378906 -5.144531 2.328125 -4.96875 C 2.285156 -4.800781 2.257812 -4.644531 2.25 -4.5 C 2.363281 -4.53125 2.503906 -4.566406 2.671875 -4.609375 C 2.847656 -4.648438 3.007812 -4.707031 3.15625 -4.78125 C 3.300781 -4.851562 3.425781 -4.945312 3.53125 -5.0625 C 3.644531 -5.175781 3.703125 -5.304688 3.703125 -5.453125 Z M 3.703125 -5.453125 "/></g></g></g><g fill="#ffffff" fill-opacity="1"><g transform="translate(58.985688, 25.533697)"><g><path d="M 4.859375 -4.828125 C 4.742188 -4.816406 4.640625 -4.828125 4.546875 -4.859375 C 4.460938 -4.890625 4.378906 -4.921875 4.296875 -4.953125 C 4.222656 -4.992188 4.144531 -5.023438 4.0625 -5.046875 C 3.988281 -5.078125 3.90625 -5.09375 3.8125 -5.09375 C 3.632812 -5.082031 3.476562 -5.03125 3.34375 -4.9375 C 3.21875 -4.851562 3.097656 -4.742188 2.984375 -4.609375 C 2.878906 -4.484375 2.785156 -4.34375 2.703125 -4.1875 C 2.628906 -4.03125 2.570312 -3.875 2.53125 -3.71875 C 2.5 -3.613281 2.476562 -3.457031 2.46875 -3.25 C 2.457031 -3.039062 2.453125 -2.8125 2.453125 -2.5625 C 2.441406 -2.3125 2.4375 -2.070312 2.4375 -1.84375 C 2.4375 -1.625 2.425781 -1.453125 2.40625 -1.328125 C 2.40625 -1.191406 2.382812 -1.03125 2.34375 -0.84375 C 2.3125 -0.65625 2.257812 -0.476562 2.1875 -0.3125 C 2.113281 -0.15625 2.015625 -0.0195312 1.890625 0.09375 C 1.773438 0.207031 1.625 0.265625 1.4375 0.265625 C 1.289062 0.265625 1.160156 0.21875 1.046875 0.125 C 0.941406 0.0390625 0.851562 -0.0664062 0.78125 -0.203125 C 0.707031 -0.347656 0.644531 -0.515625 0.59375 -0.703125 C 0.550781 -0.898438 0.515625 -1.097656 0.484375 -1.296875 C 0.460938 -1.492188 0.441406 -1.695312 0.421875 -1.90625 C 0.410156 -2.113281 0.40625 -2.3125 0.40625 -2.5 C 0.40625 -2.6875 0.40625 -2.851562 0.40625 -3 C 0.40625 -3.15625 0.40625 -3.28125 0.40625 -3.375 C 0.40625 -3.675781 0.390625 -3.976562 0.359375 -4.28125 C 0.335938 -4.59375 0.328125 -4.898438 0.328125 -5.203125 C 0.328125 -5.390625 0.335938 -5.597656 0.359375 -5.828125 C 0.378906 -6.066406 0.425781 -6.285156 0.5 -6.484375 C 0.582031 -6.691406 0.695312 -6.863281 0.84375 -7 C 1 -7.132812 1.207031 -7.203125 1.46875 -7.203125 C 1.613281 -7.203125 1.738281 -7.15625 1.84375 -7.0625 C 1.945312 -6.96875 2.03125 -6.847656 2.09375 -6.703125 C 2.15625 -6.566406 2.203125 -6.421875 2.234375 -6.265625 C 2.273438 -6.117188 2.300781 -5.976562 2.3125 -5.84375 C 2.519531 -6.175781 2.75 -6.445312 3 -6.65625 C 3.257812 -6.875 3.597656 -6.992188 4.015625 -7.015625 C 4.222656 -7.015625 4.425781 -6.988281 4.625 -6.9375 C 4.832031 -6.894531 5.019531 -6.820312 5.1875 -6.71875 C 5.351562 -6.613281 5.488281 -6.472656 5.59375 -6.296875 C 5.695312 -6.128906 5.753906 -5.925781 5.765625 -5.6875 C 5.785156 -5.414062 5.703125 -5.207031 5.515625 -5.0625 C 5.335938 -4.914062 5.117188 -4.835938 4.859375 -4.828125 Z M 4.859375 -4.828125 "/></g></g></g><g fill="#ffffff" fill-opacity="1"><g transform="translate(65.219655, 25.533697)"><g><path d="M 4.171875 -7.09375 C 4.171875 -6.84375 4.085938 -6.65625 3.921875 -6.53125 C 3.753906 -6.414062 3.566406 -6.304688 3.359375 -6.203125 C 3.148438 -6.097656 2.960938 -5.972656 2.796875 -5.828125 C 2.628906 -5.679688 2.546875 -5.457031 2.546875 -5.15625 C 2.546875 -5.007812 2.582031 -4.878906 2.65625 -4.765625 C 2.726562 -4.648438 2.816406 -4.546875 2.921875 -4.453125 C 3.023438 -4.367188 3.140625 -4.28125 3.265625 -4.1875 C 3.398438 -4.09375 3.519531 -3.984375 3.625 -3.859375 C 3.738281 -3.734375 3.832031 -3.582031 3.90625 -3.40625 C 3.976562 -3.238281 4.015625 -3.03125 4.015625 -2.78125 C 4.015625 -2.425781 3.921875 -2.070312 3.734375 -1.71875 C 3.546875 -1.375 3.304688 -1.066406 3.015625 -0.796875 C 2.734375 -0.523438 2.410156 -0.304688 2.046875 -0.140625 C 1.691406 0.0234375 1.335938 0.109375 0.984375 0.109375 C 0.835938 0.109375 0.691406 0.09375 0.546875 0.0625 C 0.398438 0.0390625 0.265625 0.00390625 0.140625 -0.046875 C 0.0234375 -0.109375 -0.0664062 -0.191406 -0.140625 -0.296875 C -0.222656 -0.410156 -0.265625 -0.550781 -0.265625 -0.71875 C -0.265625 -0.957031 -0.210938 -1.144531 -0.109375 -1.28125 C -0.015625 -1.414062 0.101562 -1.519531 0.25 -1.59375 C 0.394531 -1.675781 0.550781 -1.738281 0.71875 -1.78125 C 0.882812 -1.820312 1.039062 -1.875 1.1875 -1.9375 C 1.332031 -2.007812 1.453125 -2.09375 1.546875 -2.1875 C 1.640625 -2.289062 1.6875 -2.441406 1.6875 -2.640625 C 1.6875 -2.816406 1.613281 -3 1.46875 -3.1875 C 1.332031 -3.382812 1.175781 -3.59375 1 -3.8125 C 0.832031 -4.03125 0.675781 -4.265625 0.53125 -4.515625 C 0.394531 -4.765625 0.328125 -5.039062 0.328125 -5.34375 C 0.328125 -5.71875 0.398438 -6.0625 0.546875 -6.375 C 0.703125 -6.6875 0.90625 -6.957031 1.15625 -7.1875 C 1.40625 -7.414062 1.691406 -7.597656 2.015625 -7.734375 C 2.347656 -7.867188 2.695312 -7.9375 3.0625 -7.9375 C 3.195312 -7.9375 3.332031 -7.921875 3.46875 -7.890625 C 3.601562 -7.867188 3.71875 -7.828125 3.8125 -7.765625 C 3.914062 -7.703125 4 -7.613281 4.0625 -7.5 C 4.132812 -7.394531 4.171875 -7.257812 4.171875 -7.09375 Z M 4.171875 -7.09375 "/></g></g></g><path fill="#000000" d="M 16.78125 16.859375 C 16.992188 16.90625 17.59375 16.988281 18.007812 16.578125 C 18.003906 16.484375 18 16.417969 18 16.417969 L 17.035156 16.417969 L 16.761719 16.570312 C 16.757812 16.570312 16.773438 16.703125 16.78125 16.859375 Z M 16.78125 16.859375 " fill-opacity="1" fill-rule="evenodd"/><path fill="#fe9f3a" d="M 16.285156 20.351562 C 16.285156 20.351562 16.289062 19.6875 16.558594 19.074219 C 16.726562 18.699219 16.996094 18.335938 17.457031 18.195312 C 18.035156 18.019531 18.527344 18.273438 18.875 18.558594 C 19.246094 18.863281 19.464844 19.214844 19.464844 19.214844 C 19.539062 19.335938 19.699219 19.375 19.824219 19.296875 C 19.945312 19.222656 19.984375 19.0625 19.910156 18.941406 C 19.640625 18.582031 19.332031 18.238281 18.914062 17.945312 C 18.476562 17.675781 17.925781 17.507812 17.304688 17.699219 C 16.683594 17.886719 16.304688 18.359375 16.078125 18.863281 C 15.761719 19.578125 15.757812 20.347656 15.757812 20.347656 C 15.757812 20.492188 15.875 20.605469 16.019531 20.609375 C 16.164062 20.609375 16.28125 20.492188 16.285156 20.351562 Z M 16.285156 20.351562 " fill-opacity="1" fill-rule="evenodd"/><path fill="#000000" d="M 18.925781 17.933594 C 18.484375 17.65625 17.929688 17.488281 17.296875 17.679688 C 16.671875 17.871094 16.289062 18.347656 16.0625 18.855469 C 15.746094 19.574219 15.738281 20.34375 15.738281 20.347656 C 15.738281 20.5 15.867188 20.625 16.019531 20.625 C 16.03125 20.625 16.039062 20.617188 16.039062 20.609375 C 16.042969 20.597656 16.03125 20.589844 16.019531 20.589844 C 15.886719 20.589844 15.777344 20.480469 15.777344 20.347656 C 15.777344 20.347656 15.78125 19.582031 16.09375 18.875 C 16.316406 18.371094 16.691406 17.902344 17.308594 17.71875 C 17.929688 17.527344 18.472656 17.691406 18.90625 17.964844 C 18.914062 17.96875 18.925781 17.96875 18.933594 17.957031 C 18.9375 17.949219 18.933594 17.9375 18.925781 17.933594 Z M 18.925781 17.933594 " fill-opacity="1" fill-rule="evenodd"/><path fill="#fec184" d="M 16.734375 20.515625 C 16.621094 20.210938 16.28125 20.050781 15.972656 20.160156 C 15.726562 20.25 15.4375 20.351562 15.191406 20.441406 C 14.882812 20.550781 14.722656 20.890625 14.835938 21.195312 C 15.136719 22.027344 15.699219 23.578125 16.003906 24.410156 C 16.113281 24.714844 16.457031 24.875 16.765625 24.765625 C 17.011719 24.675781 17.296875 24.574219 17.542969 24.484375 C 17.851562 24.375 18.015625 24.035156 17.902344 23.726562 C 17.601562 22.898438 17.035156 21.347656 16.734375 20.515625 Z M 16.734375 20.515625 " fill-opacity="1" fill-rule="evenodd"/><path fill="#ffb7e7" d="M 12.304688 22.675781 L 12.804688 23.714844 L 14.039062 23.296875 L 14.097656 22.859375 L 13.769531 22.121094 L 12.710938 22.199219 Z M 12.304688 22.675781 " fill-opacity="1" fill-rule="evenodd"/><path fill="#3471d2" d="M 12.117188 12.304688 L 11.164062 11.980469 L 10.289062 12.152344 C 10.289062 12.152344 7.703125 13.859375 7.167969 15.027344 C 6.632812 16.191406 7.226562 17.023438 8.097656 17.625 C 8.96875 18.226562 9.585938 18.652344 9.585938 18.652344 C 9.585938 18.652344 9.738281 19.214844 10.453125 19.195312 C 10.453125 19.195312 10.589844 19.347656 10.789062 19.449219 C 10.75 17.949219 10.539062 16.90625 10.445312 16.511719 C 10.210938 16.320312 9.949219 16.136719 9.714844 16.019531 L 9.738281 15.863281 C 9.738281 15.863281 10.0625 15.769531 10.078125 15.542969 L 10.925781 14.964844 Z M 12.117188 12.304688 " fill-opacity="1" fill-rule="evenodd"/><path fill="#1b3e77" d="M 10.445312 16.507812 C 10.539062 16.902344 10.753906 17.949219 10.789062 19.449219 C 10.925781 19.519531 11.089844 19.5625 11.265625 19.523438 L 11.222656 17.195312 C 11.222656 17.195312 10.871094 16.84375 10.445312 16.507812 Z M 10.445312 16.507812 " fill-opacity="1" fill-rule="evenodd"/><path fill="#1b3e77" d="M 12.117188 12.300781 L 10.925781 14.964844 L 11.789062 14.375 L 12.5625 12.90625 L 12.253906 12.347656 Z M 12.117188 12.300781 " fill-opacity="1" fill-rule="evenodd"/><path fill="#3471d2" d="M 12.078125 12.757812 C 12.078125 12.757812 11.03125 16.578125 11.007812 17.414062 C 10.984375 18.25 10.882812 19.210938 11.503906 21.050781 C 11.503906 21.050781 11.421875 21.816406 11.730469 22.113281 C 11.730469 22.113281 11.722656 22.769531 12.253906 22.851562 C 12.78125 22.933594 14.707031 22.230469 14.019531 21.769531 C 14.019531 21.769531 14.277344 21.332031 13.960938 21.1875 C 13.960938 21.1875 14.003906 19.535156 13.511719 18.507812 C 13.511719 18.507812 13.824219 18.273438 13.585938 17.988281 C 13.585938 17.988281 14.242188 17 13.886719 16.601562 C 13.886719 16.601562 14.390625 15.585938 14.542969 14.507812 L 14.832031 13.277344 L 13.21875 12.605469 Z M 12.078125 12.757812 " fill-opacity="1" fill-rule="evenodd"/><path fill="#1b3e77" d="M 10.050781 12.421875 C 10.050781 12.421875 10.742188 13.328125 11.109375 13.285156 C 11.289062 13.265625 11.425781 12.863281 11.425781 12.863281 C 11.425781 12.863281 11.585938 13.175781 12.117188 13.109375 C 12.117188 13.109375 12.542969 13.660156 13.175781 13.496094 C 13.175781 13.496094 13.660156 13.863281 13.960938 13.691406 L 13.960938 13.664062 C 13.960938 13.664062 13.535156 13.621094 13.234375 13.289062 C 13.234375 13.289062 12.554688 13.414062 12.175781 12.882812 C 12.175781 12.882812 11.570312 12.84375 11.265625 12.523438 Z M 10.050781 12.421875 " fill-opacity="1" fill-rule="evenodd"/><g clip-path="url(#e86ab0a8b5)"><path fill="#019cef" d="M 24.21875 10.648438 C 24.21875 10.804688 24.1875 10.953125 24.128906 11.097656 C 24.070312 11.242188 23.984375 11.367188 23.875 11.476562 C 23.761719 11.589844 23.636719 11.671875 23.492188 11.730469 C 23.347656 11.792969 23.195312 11.820312 23.039062 11.820312 C 22.882812 11.820312 22.730469 11.792969 22.585938 11.730469 C 22.441406 11.671875 22.316406 11.589844 22.203125 11.476562 C 22.09375 11.367188 22.007812 11.242188 21.949219 11.097656 C 21.886719 10.953125 21.859375 10.804688 21.859375 10.648438 C 21.859375 10.496094 21.886719 10.34375 21.949219 10.203125 C 22.007812 10.058594 22.09375 9.933594 22.203125 9.824219 C 22.316406 9.710938 22.441406 9.628906 22.585938 9.570312 C 22.730469 9.507812 22.882812 9.480469 23.039062 9.480469 C 23.195312 9.480469 23.347656 9.507812 23.492188 9.570312 C 23.636719 9.628906 23.761719 9.710938 23.875 9.824219 C 23.984375 9.933594 24.070312 10.058594 24.128906 10.203125 C 24.1875 10.34375 24.21875 10.496094 24.21875 10.648438 Z M 24.21875 10.648438 " fill-opacity="1" fill-rule="nonzero"/></g><g clip-path="url(#fb14246c19)"><path fill="#ffb7e7" d="M 10.925781 2.488281 C 10.925781 2.488281 10.988281 2.21875 10.9375 1.980469 C 10.882812 1.738281 10.988281 1.167969 11.273438 0.972656 L 12.421875 1.648438 L 12.230469 2.515625 L 11.664062 2.851562 Z M 10.925781 2.488281 " fill-opacity="1" fill-rule="evenodd"/></g><g clip-path="url(#ac032f4883)"><path fill="#ffb7e7" d="M 11.804688 1.007812 C 11.804688 1.007812 11.691406 1.332031 11.625 1.523438 C 11.613281 1.558594 11.585938 1.585938 11.554688 1.597656 C 11.519531 1.613281 11.480469 1.613281 11.445312 1.597656 C 11.390625 1.570312 11.324219 1.539062 11.277344 1.515625 C 11.222656 1.492188 11.191406 1.433594 11.203125 1.375 C 11.226562 1.25 11.265625 1.03125 11.289062 0.914062 C 11.296875 0.863281 11.339844 0.820312 11.390625 0.808594 C 11.515625 0.78125 11.734375 0.773438 11.804688 1.007812 Z M 11.804688 1.007812 " fill-opacity="1" fill-rule="evenodd"/></g><g clip-path="url(#70f121d933)"><path fill="#ffb7e7" d="M 11.804688 1.007812 C 11.804688 1.007812 12.171875 0.921875 12.253906 1.203125 C 12.253906 1.203125 12.105469 1.613281 12.0625 1.730469 C 12.058594 1.746094 12.039062 1.765625 12.019531 1.769531 C 11.792969 1.832031 11.664062 1.75 11.609375 1.558594 Z M 11.804688 1.007812 " fill-opacity="1" fill-rule="evenodd"/></g><path fill="#ffb7e7" d="M 12.253906 1.203125 C 12.253906 1.203125 12.542969 1.152344 12.640625 1.382812 C 12.65625 1.417969 12.652344 1.453125 12.636719 1.484375 C 12.589844 1.582031 12.46875 1.828125 12.414062 1.9375 C 12.394531 1.972656 12.355469 1.996094 12.3125 1.988281 C 12.21875 1.976562 12.054688 1.925781 12.042969 1.753906 Z M 12.253906 1.203125 " fill-opacity="1" fill-rule="evenodd"/><path fill="#000000" d="M 11.246094 1.046875 C 11.246094 1.046875 11.183594 1.355469 11.1875 1.433594 C 11.191406 1.457031 11.210938 1.488281 11.246094 1.515625 C 11.3125 1.574219 11.433594 1.628906 11.488281 1.628906 C 11.511719 1.628906 11.53125 1.621094 11.554688 1.605469 C 11.582031 1.585938 11.605469 1.554688 11.628906 1.511719 C 11.71875 1.367188 11.777344 1.125 11.777344 1.125 C 11.78125 1.117188 11.773438 1.109375 11.761719 1.105469 C 11.753906 1.101562 11.742188 1.109375 11.742188 1.117188 C 11.742188 1.117188 11.683594 1.355469 11.597656 1.496094 C 11.582031 1.523438 11.5625 1.550781 11.542969 1.566406 C 11.523438 1.582031 11.507812 1.59375 11.488281 1.59375 C 11.445312 1.59375 11.359375 1.558594 11.300781 1.511719 C 11.273438 1.496094 11.253906 1.476562 11.238281 1.460938 C 11.230469 1.449219 11.226562 1.441406 11.226562 1.429688 C 11.21875 1.355469 11.285156 1.054688 11.285156 1.054688 C 11.285156 1.046875 11.28125 1.035156 11.269531 1.035156 C 11.257812 1.03125 11.25 1.039062 11.246094 1.046875 Z M 11.246094 1.046875 " fill-opacity="1" fill-rule="evenodd"/><path fill="#000000" d="M 11.597656 1.5 C 11.597656 1.5 11.59375 1.652344 11.699219 1.730469 C 11.765625 1.777344 11.851562 1.804688 11.929688 1.796875 C 11.984375 1.789062 12.03125 1.769531 12.066406 1.730469 C 12.066406 1.730469 12.066406 1.726562 12.070312 1.726562 L 12.222656 1.308594 C 12.226562 1.296875 12.222656 1.289062 12.210938 1.285156 C 12.203125 1.28125 12.191406 1.285156 12.1875 1.296875 L 12.035156 1.710938 C 12.007812 1.742188 11.96875 1.753906 11.925781 1.757812 C 11.859375 1.765625 11.78125 1.746094 11.722656 1.703125 C 11.628906 1.632812 11.632812 1.5 11.632812 1.5 C 11.632812 1.492188 11.628906 1.484375 11.617188 1.484375 C 11.605469 1.484375 11.597656 1.492188 11.597656 1.5 Z M 11.597656 1.5 " fill-opacity="1" fill-rule="evenodd"/><path fill="#000000" d="M 12.03125 1.722656 C 12.03125 1.722656 12.03125 1.871094 12.132812 1.941406 C 12.234375 2.007812 12.324219 2 12.324219 2 C 12.332031 2 12.34375 1.992188 12.339844 1.980469 C 12.339844 1.972656 12.332031 1.964844 12.320312 1.964844 C 12.320312 1.964844 12.242188 1.972656 12.152344 1.914062 C 12.066406 1.855469 12.066406 1.722656 12.066406 1.722656 C 12.066406 1.710938 12.058594 1.703125 12.046875 1.703125 C 12.039062 1.703125 12.03125 1.710938 12.03125 1.722656 Z M 12.03125 1.722656 " fill-opacity="1" fill-rule="evenodd"/><path fill="#ffb7e7" d="M 11.886719 2.945312 C 11.886719 2.945312 12.011719 2.832031 12.25 2.699219 C 12.484375 2.570312 12.699219 2.1875 12.699219 2.09375 C 12.703125 2 12.550781 1.644531 12.550781 1.644531 C 12.550781 1.644531 12.3125 1.53125 12.230469 1.453125 C 12.148438 1.371094 12.03125 1.753906 12.257812 1.878906 L 12.277344 2.042969 C 12.277344 2.042969 11.601562 2.128906 11.457031 2.570312 L 11.566406 2.90625 Z M 11.886719 2.945312 " fill-opacity="1" fill-rule="evenodd"/><path fill="#000000" d="M 11.699219 2.3125 C 11.832031 2.199219 12.023438 2.089844 12.28125 2.0625 C 12.289062 2.0625 12.292969 2.058594 12.292969 2.054688 C 12.296875 2.050781 12.296875 2.046875 12.296875 2.042969 L 12.277344 1.878906 C 12.277344 1.875 12.273438 1.871094 12.269531 1.867188 C 12.269531 1.867188 12.085938 1.714844 12.175781 1.496094 C 12.183594 1.476562 12.203125 1.476562 12.226562 1.484375 C 12.308594 1.511719 12.433594 1.613281 12.515625 1.652344 C 12.523438 1.65625 12.53125 1.65625 12.539062 1.644531 C 12.542969 1.636719 12.539062 1.625 12.53125 1.621094 C 12.464844 1.589844 12.359375 1.507812 12.28125 1.46875 C 12.25 1.453125 12.222656 1.445312 12.203125 1.445312 C 12.175781 1.445312 12.152344 1.457031 12.144531 1.484375 C 12.054688 1.707031 12.210938 1.863281 12.242188 1.894531 L 12.261719 2.03125 C 12.003906 2.066406 11.8125 2.175781 11.679688 2.289062 C 11.671875 2.296875 11.667969 2.308594 11.675781 2.316406 C 11.683594 2.320312 11.695312 2.320312 11.699219 2.3125 Z M 11.699219 2.3125 " fill-opacity="1" fill-rule="evenodd"/><path fill="#ffb7e7" d="M 17.957031 16.574219 C 17.542969 16.984375 16.941406 16.902344 16.730469 16.855469 C 16.734375 17.003906 16.730469 17.171875 16.699219 17.277344 C 16.632812 17.496094 16.425781 17.761719 16.492188 18.195312 C 16.492188 18.195312 16.625 18.050781 16.765625 17.949219 C 16.765625 17.949219 16.851562 18.535156 16.898438 18.640625 C 16.941406 18.742188 17.234375 18.730469 17.429688 18.554688 C 17.429688 18.554688 17.722656 18.632812 17.929688 18.417969 C 17.929688 18.417969 18.292969 18.472656 18.324219 18.140625 C 18.355469 17.808594 18.078125 17.289062 18.019531 17.046875 C 17.980469 16.90625 17.964844 16.710938 17.957031 16.574219 Z M 17.957031 16.574219 " fill-opacity="1" fill-rule="evenodd"/><path fill="#000000" d="M 16.785156 17.96875 L 16.78125 17.730469 C 16.777344 17.71875 16.769531 17.710938 16.761719 17.710938 C 16.75 17.710938 16.742188 17.722656 16.742188 17.730469 L 16.75 17.96875 C 16.75 17.980469 16.757812 17.988281 16.765625 17.988281 C 16.777344 17.988281 16.785156 17.980469 16.785156 17.96875 Z M 16.785156 17.96875 " fill-opacity="1" fill-rule="evenodd"/><path fill="#ffffff" d="M 11.113281 12.394531 C 11.113281 12.394531 11.585938 12.929688 12.164062 12.875 C 12.164062 12.875 12.519531 13.421875 13.226562 13.285156 C 13.226562 13.285156 13.640625 13.667969 14.050781 13.660156 L 14.5 11.316406 L 14.917969 8.925781 L 13.339844 8.492188 L 12.996094 8.253906 L 11.203125 11.636719 Z M 11.113281 12.394531 " fill-opacity="1" fill-rule="evenodd"/><path fill="#ffb7e7" d="M 13.765625 6.574219 C 13.765625 6.574219 13.347656 7.617188 13.773438 7.820312 L 13.660156 8.132812 L 13.710938 8.699219 L 14.222656 8.742188 L 14.671875 8.53125 L 14.992188 7.675781 C 14.992188 7.675781 15.617188 7.804688 15.753906 7.503906 C 15.890625 7.203125 15.398438 7.074219 15.074219 7.136719 L 15.203125 6.492188 L 14.019531 6.144531 L 13.792969 6.429688 Z M 13.765625 6.574219 " fill-opacity="1" fill-rule="evenodd"/><path fill="#000000" d="M 14.242188 7.074219 C 14.207031 7.058594 14.199219 7.027344 14.21875 6.976562 C 14.238281 6.929688 14.265625 6.910156 14.300781 6.925781 C 14.335938 6.9375 14.34375 6.96875 14.324219 7.019531 C 14.304688 7.070312 14.277344 7.085938 14.242188 7.074219 Z M 14.242188 7.074219 " fill-opacity="1" fill-rule="nonzero"/><path fill="#000000" d="M 13.84375 6.933594 C 13.808594 6.921875 13.796875 6.894531 13.808594 6.839844 C 13.824219 6.789062 13.847656 6.769531 13.886719 6.777344 C 13.921875 6.789062 13.933594 6.820312 13.921875 6.871094 C 13.90625 6.921875 13.878906 6.941406 13.84375 6.933594 Z M 13.84375 6.933594 " fill-opacity="1" fill-rule="nonzero"/><path fill="#000000" d="M 15.09375 7.289062 C 15.054688 7.363281 15.050781 7.4375 15.082031 7.515625 C 15.082031 7.515625 15.382812 7.5625 15.4375 7.441406 C 15.492188 7.320312 15.199219 7.273438 15.09375 7.289062 Z M 15.09375 7.289062 " fill-opacity="1" fill-rule="evenodd"/><path fill="#000000" d="M 14.175781 7.882812 C 14.175781 7.882812 14.054688 8.074219 13.667969 8.113281 L 13.773438 7.820312 C 13.773438 7.820312 13.917969 7.90625 14.175781 7.882812 Z M 14.175781 7.882812 " fill-opacity="1" fill-rule="evenodd"/><path fill="#daffbc" d="M 17.742188 6.863281 C 17.648438 5.847656 18.296875 4.882812 19.316406 4.601562 C 20.46875 4.289062 21.65625 4.960938 21.972656 6.097656 C 22.289062 7.238281 21.613281 8.417969 20.464844 8.730469 C 19.441406 9.011719 18.382812 8.507812 17.941406 7.589844 L 16.351562 7.632812 Z M 17.742188 6.863281 " fill-opacity="1" fill-rule="evenodd"/><path fill="#000000" d="M 21.957031 6.105469 C 22.269531 7.234375 21.597656 8.402344 20.460938 8.714844 C 19.445312 8.992188 18.394531 8.496094 17.960938 7.582031 C 17.957031 7.578125 17.949219 7.574219 17.941406 7.574219 L 16.351562 7.617188 C 16.34375 7.617188 16.335938 7.625 16.335938 7.632812 C 16.335938 7.644531 16.34375 7.648438 16.351562 7.648438 L 17.933594 7.609375 C 18.382812 8.527344 19.441406 9.03125 20.46875 8.75 C 21.625 8.433594 22.308594 7.242188 21.988281 6.09375 C 21.988281 6.085938 21.976562 6.078125 21.96875 6.082031 C 21.960938 6.085938 21.953125 6.09375 21.957031 6.105469 Z M 21.957031 6.105469 " fill-opacity="1" fill-rule="evenodd"/><path fill="#ffdb3b" d="M 20.957031 12.160156 L 21.140625 13.636719 C 21.148438 13.707031 21.179688 13.773438 21.222656 13.824219 C 21.269531 13.878906 21.328125 13.910156 21.394531 13.921875 L 22.714844 14.125 L 21.394531 14.328125 C 21.328125 14.339844 21.269531 14.371094 21.222656 14.425781 C 21.179688 14.476562 21.148438 14.542969 21.140625 14.613281 L 20.957031 16.089844 L 20.773438 14.613281 C 20.765625 14.542969 20.734375 14.476562 20.691406 14.425781 C 20.644531 14.371094 20.585938 14.339844 20.519531 14.328125 L 19.199219 14.125 L 20.519531 13.921875 C 20.585938 13.910156 20.644531 13.878906 20.691406 13.824219 C 20.734375 13.773438 20.765625 13.707031 20.773438 13.636719 Z M 20.957031 12.160156 " fill-opacity="1" fill-rule="evenodd"/><path fill="#ffdb3b" d="M 4.65625 15.167969 L 4.800781 16.355469 C 4.808594 16.414062 4.832031 16.464844 4.871094 16.507812 C 4.90625 16.546875 4.953125 16.574219 5.003906 16.582031 L 6.066406 16.746094 L 5.003906 16.910156 C 4.953125 16.917969 4.90625 16.945312 4.871094 16.988281 C 4.832031 17.027344 4.808594 17.082031 4.800781 17.136719 L 4.65625 18.324219 L 4.507812 17.136719 C 4.5 17.082031 4.476562 17.027344 4.441406 16.988281 C 4.402344 16.945312 4.355469 16.917969 4.304688 16.910156 L 3.242188 16.746094 L 4.304688 16.582031 C 4.355469 16.574219 4.402344 16.546875 4.441406 16.507812 C 4.476562 16.464844 4.5 16.414062 4.507812 16.355469 Z M 4.65625 15.167969 " fill-opacity="1" fill-rule="evenodd"/><path fill="#7bc53e" d="M 6.320312 12.9375 C 6.320312 13.074219 6.253906 13.140625 6.117188 13.140625 C 5.980469 13.140625 5.910156 13.074219 5.910156 12.9375 C 5.910156 12.800781 5.980469 12.734375 6.117188 12.734375 C 6.253906 12.734375 6.320312 12.800781 6.320312 12.9375 Z M 6.320312 12.9375 " fill-opacity="1" fill-rule="nonzero"/><path fill="#019cef" d="M 19.261719 10.046875 C 19.261719 10.15625 19.207031 10.210938 19.097656 10.210938 C 18.988281 10.210938 18.933594 10.15625 18.933594 10.046875 C 18.933594 9.9375 18.988281 9.882812 19.097656 9.882812 C 19.207031 9.882812 19.261719 9.9375 19.261719 10.046875 Z M 19.261719 10.046875 " fill-opacity="1" fill-rule="nonzero"/><path fill="#000000" d="M 16.921875 8.523438 L 17.285156 9.226562 C 17.289062 9.234375 17.300781 9.238281 17.308594 9.234375 C 17.320312 9.230469 17.320312 9.21875 17.316406 9.207031 L 16.957031 8.507812 C 16.953125 8.496094 16.9375 8.492188 16.929688 8.5 C 16.921875 8.503906 16.917969 8.515625 16.921875 8.523438 Z M 16.921875 8.523438 " fill-opacity="1" fill-rule="evenodd"/><path fill="#000000" d="M 16.921875 3.027344 L 16.921875 3.808594 C 16.921875 3.820312 16.929688 3.828125 16.941406 3.828125 C 16.953125 3.828125 16.957031 3.820312 16.957031 3.808594 L 16.957031 3.027344 C 16.957031 3.019531 16.949219 3.011719 16.941406 3.011719 C 16.929688 3.011719 16.921875 3.019531 16.921875 3.027344 Z M 16.921875 3.027344 " fill-opacity="1" fill-rule="evenodd"/><path fill="#000000" d="M 8.089844 5.496094 L 7.914062 6.449219 C 7.914062 6.460938 7.917969 6.46875 7.929688 6.472656 C 7.941406 6.472656 7.949219 6.464844 7.953125 6.457031 L 8.125 5.503906 C 8.128906 5.492188 8.121094 5.484375 8.113281 5.480469 C 8.101562 5.480469 8.089844 5.488281 8.089844 5.496094 Z M 8.089844 5.496094 " fill-opacity="1" fill-rule="evenodd"/><g clip-path="url(#d6235387bc)"><path fill="#000000" d="M 23.558594 17.132812 C 23.550781 17.09375 23.542969 17.058594 23.527344 17.027344 C 23.496094 16.960938 23.449219 16.910156 23.375 16.890625 C 23.253906 16.859375 23.117188 16.890625 23.035156 16.984375 C 22.980469 17.042969 22.964844 17.109375 22.980469 17.167969 C 23 17.226562 23.046875 17.273438 23.128906 17.296875 C 23.269531 17.332031 23.414062 17.28125 23.53125 17.199219 C 23.535156 17.242188 23.535156 17.289062 23.535156 17.324219 C 23.527344 17.726562 23.1875 18.019531 22.84375 18.1875 C 22.835938 18.191406 22.832031 18.203125 22.835938 18.214844 C 22.839844 18.222656 22.855469 18.226562 22.863281 18.222656 C 23.214844 18.046875 23.566406 17.742188 23.574219 17.324219 C 23.574219 17.277344 23.574219 17.226562 23.566406 17.171875 C 23.597656 17.148438 23.625 17.125 23.648438 17.101562 C 23.925781 16.832031 24.125 16.398438 24.136719 16.015625 C 24.136719 16.003906 24.128906 15.996094 24.121094 15.996094 C 24.109375 15.996094 24.101562 16.003906 24.097656 16.011719 C 24.085938 16.386719 23.890625 16.8125 23.625 17.074219 C 23.601562 17.09375 23.578125 17.113281 23.558594 17.132812 Z M 23.523438 17.15625 C 23.519531 17.117188 23.507812 17.078125 23.492188 17.039062 C 23.46875 16.984375 23.425781 16.941406 23.363281 16.925781 C 23.257812 16.894531 23.136719 16.925781 23.0625 17.007812 C 23.015625 17.054688 23 17.109375 23.015625 17.15625 C 23.03125 17.203125 23.070312 17.242188 23.136719 17.257812 C 23.273438 17.296875 23.410156 17.242188 23.523438 17.15625 Z M 23.523438 17.15625 " fill-opacity="1" fill-rule="evenodd"/></g><g clip-path="url(#c959507401)"><path fill="#000000" d="M 2.609375 13.113281 C 2.726562 13.417969 2.996094 13.683594 3.28125 13.816406 C 3.292969 13.824219 3.300781 13.816406 3.304688 13.808594 C 3.308594 13.800781 3.308594 13.789062 3.296875 13.785156 C 3.027344 13.65625 2.769531 13.410156 2.65625 13.125 C 2.695312 13.136719 2.738281 13.140625 2.777344 13.140625 C 2.875 13.140625 2.964844 13.105469 3.027344 13.023438 C 3.058594 12.980469 3.078125 12.917969 3.085938 12.847656 C 3.09375 12.75 3.074219 12.632812 3.027344 12.550781 C 3 12.503906 2.964844 12.464844 2.921875 12.445312 C 2.875 12.425781 2.820312 12.425781 2.761719 12.453125 C 2.679688 12.488281 2.625 12.550781 2.59375 12.628906 C 2.546875 12.738281 2.546875 12.875 2.570312 12.980469 C 2.574219 13.011719 2.585938 13.042969 2.59375 13.070312 C 2.566406 13.0625 2.542969 13.054688 2.519531 13.042969 C 2.152344 12.871094 1.929688 12.519531 1.757812 12.167969 C 1.753906 12.15625 1.742188 12.152344 1.734375 12.15625 C 1.722656 12.160156 1.71875 12.171875 1.722656 12.183594 C 1.898438 12.542969 2.128906 12.898438 2.503906 13.078125 C 2.539062 13.089844 2.570312 13.101562 2.609375 13.113281 Z M 2.640625 13.082031 C 2.683594 13.09375 2.730469 13.101562 2.777344 13.101562 C 2.863281 13.097656 2.945312 13.070312 3 12.996094 C 3.027344 12.960938 3.042969 12.90625 3.046875 12.84375 C 3.058594 12.75 3.039062 12.644531 2.996094 12.566406 C 2.972656 12.523438 2.945312 12.492188 2.90625 12.476562 C 2.871094 12.460938 2.828125 12.460938 2.773438 12.484375 C 2.6875 12.523438 2.636719 12.601562 2.613281 12.691406 C 2.589844 12.785156 2.589844 12.886719 2.609375 12.96875 C 2.613281 13.007812 2.625 13.046875 2.640625 13.082031 Z M 2.640625 13.082031 " fill-opacity="1" fill-rule="evenodd"/></g><path fill="#ffdb3b" d="M 6.429688 10.21875 L 3.707031 11.304688 L 2.933594 9.40625 L 5.65625 8.316406 Z M 6.429688 10.21875 " fill-opacity="1" fill-rule="evenodd"/><path fill="#000000" d="M 2.9375 9.425781 L 4.71875 9.914062 C 4.726562 9.917969 4.734375 9.914062 4.738281 9.90625 L 5.679688 8.328125 C 5.683594 8.320312 5.679688 8.308594 5.671875 8.300781 C 5.664062 8.292969 5.652344 8.300781 5.648438 8.308594 L 4.714844 9.875 C 4.546875 9.832031 2.945312 9.386719 2.945312 9.386719 C 2.9375 9.382812 2.925781 9.390625 2.921875 9.398438 C 2.917969 9.410156 2.925781 9.421875 2.9375 9.425781 Z M 2.9375 9.425781 " fill-opacity="1" fill-rule="evenodd"/><path fill="#fe5e3a" d="M 6.128906 8.140625 C 6.183594 8.285156 6.183594 8.425781 6.125 8.566406 C 6.0625 8.707031 5.960938 8.808594 5.816406 8.863281 C 5.675781 8.921875 5.53125 8.921875 5.390625 8.859375 C 5.246094 8.800781 5.148438 8.699219 5.089844 8.558594 C 5.03125 8.414062 5.03125 8.273438 5.09375 8.132812 C 5.152344 7.992188 5.257812 7.890625 5.398438 7.835938 C 5.542969 7.777344 5.683594 7.777344 5.828125 7.839844 C 5.96875 7.898438 6.070312 8 6.128906 8.140625 Z M 6.128906 8.140625 " fill-opacity="1" fill-rule="nonzero"/><path fill="#ffffff" d="M 5.519531 8.261719 L 5.300781 8.167969 C 5.277344 8.15625 5.25 8.167969 5.238281 8.191406 C 5.226562 8.214844 5.238281 8.246094 5.261719 8.253906 L 5.480469 8.347656 L 5.261719 8.4375 C 5.234375 8.445312 5.222656 8.472656 5.234375 8.496094 C 5.246094 8.523438 5.273438 8.53125 5.296875 8.523438 L 5.515625 8.433594 L 5.421875 8.652344 C 5.410156 8.675781 5.425781 8.703125 5.449219 8.714844 C 5.472656 8.726562 5.5 8.710938 5.511719 8.6875 L 5.605469 8.472656 L 5.691406 8.691406 C 5.703125 8.714844 5.730469 8.726562 5.753906 8.714844 C 5.78125 8.707031 5.789062 8.679688 5.78125 8.65625 L 5.691406 8.4375 L 5.910156 8.53125 C 5.933594 8.539062 5.960938 8.527344 5.972656 8.503906 C 5.984375 8.480469 5.972656 8.453125 5.949219 8.445312 L 5.730469 8.351562 L 5.949219 8.261719 C 5.972656 8.253906 5.988281 8.226562 5.976562 8.203125 C 5.964844 8.175781 5.9375 8.167969 5.914062 8.175781 L 5.695312 8.265625 L 5.789062 8.046875 C 5.800781 8.023438 5.785156 7.996094 5.761719 7.988281 C 5.738281 7.976562 5.710938 7.988281 5.699219 8.011719 L 5.605469 8.226562 L 5.519531 8.011719 C 5.507812 7.984375 5.480469 7.972656 5.457031 7.984375 C 5.429688 7.992188 5.421875 8.019531 5.429688 8.046875 Z M 5.519531 8.261719 " fill-opacity="1" fill-rule="evenodd"/><path fill="#ffc6c6" d="M 6.195312 19.421875 L 3.835938 20.902344 L 6.203125 24.613281 L 9.234375 22.710938 L 7.285156 19.65625 Z M 6.195312 19.421875 " fill-opacity="1" fill-rule="evenodd"/><path fill="#ff8989" d="M 6.199219 19.421875 L 7.289062 19.65625 L 6.617188 20.078125 Z M 6.199219 19.421875 " fill-opacity="1" fill-rule="evenodd"/><path fill="#ffffff" d="M 5.871094 21.445312 L 5.058594 21.953125 L 4.484375 21.054688 L 5.296875 20.546875 Z M 5.871094 21.445312 " fill-opacity="1" fill-rule="evenodd"/><path fill="#000000" d="M 5.285156 22.308594 L 7.390625 20.988281 C 7.398438 20.984375 7.398438 20.972656 7.394531 20.964844 C 7.390625 20.957031 7.378906 20.953125 7.371094 20.957031 L 5.265625 22.277344 C 5.257812 22.285156 5.253906 22.296875 5.261719 22.304688 C 5.265625 22.3125 5.277344 22.316406 5.285156 22.308594 Z M 5.285156 22.308594 " fill-opacity="1" fill-rule="evenodd"/><path fill="#000000" d="M 6.007812 21.136719 L 7.066406 20.472656 C 7.074219 20.46875 7.078125 20.457031 7.070312 20.449219 C 7.066406 20.4375 7.054688 20.4375 7.046875 20.441406 L 5.988281 21.105469 C 5.980469 21.109375 5.976562 21.121094 5.984375 21.128906 C 5.988281 21.140625 6 21.140625 6.007812 21.136719 Z M 6.007812 21.136719 " fill-opacity="1" fill-rule="evenodd"/><path fill="#000000" d="M 5.6875 20.613281 L 6.59375 20.046875 C 6.601562 20.039062 6.605469 20.027344 6.597656 20.019531 C 6.59375 20.011719 6.582031 20.007812 6.574219 20.015625 L 5.667969 20.582031 C 5.660156 20.585938 5.65625 20.597656 5.664062 20.605469 C 5.667969 20.613281 5.679688 20.617188 5.6875 20.613281 Z M 5.6875 20.613281 " fill-opacity="1" fill-rule="evenodd"/><path fill="#000000" d="M 5.613281 22.824219 L 7.71875 21.507812 C 7.726562 21.5 7.730469 21.488281 7.726562 21.480469 C 7.71875 21.472656 7.707031 21.472656 7.699219 21.476562 L 5.59375 22.796875 C 5.585938 22.800781 5.585938 22.8125 5.589844 22.820312 C 5.59375 22.828125 5.605469 22.832031 5.613281 22.824219 Z M 5.613281 22.824219 " fill-opacity="1" fill-rule="evenodd"/><path fill="#000000" d="M 5.945312 23.34375 L 8.046875 22.023438 C 8.058594 22.015625 8.058594 22.007812 8.054688 22 C 8.046875 21.988281 8.035156 21.988281 8.027344 21.992188 L 5.921875 23.3125 C 5.914062 23.316406 5.914062 23.328125 5.917969 23.335938 C 5.921875 23.34375 5.933594 23.347656 5.945312 23.34375 Z M 5.945312 23.34375 " fill-opacity="1" fill-rule="evenodd"/><path fill="#000000" d="M 6.273438 23.859375 L 8.378906 22.539062 C 8.386719 22.53125 8.386719 22.523438 8.382812 22.511719 C 8.375 22.503906 8.363281 22.503906 8.359375 22.507812 L 6.253906 23.828125 C 6.246094 23.832031 6.242188 23.84375 6.246094 23.851562 C 6.253906 23.863281 6.265625 23.863281 6.273438 23.859375 Z M 6.273438 23.859375 " fill-opacity="1" fill-rule="evenodd"/><path fill="#000000" d="M 14.050781 6.816406 C 14.050781 6.816406 13.917969 7.0625 13.890625 7.230469 C 13.890625 7.238281 13.890625 7.242188 13.894531 7.246094 C 13.898438 7.25 13.90625 7.253906 13.910156 7.253906 L 13.984375 7.25 C 13.996094 7.246094 14.003906 7.238281 14.003906 7.230469 C 14 7.21875 13.992188 7.210938 13.980469 7.210938 L 13.929688 7.210938 C 13.96875 7.050781 14.082031 6.832031 14.082031 6.832031 C 14.085938 6.824219 14.082031 6.8125 14.074219 6.808594 C 14.066406 6.804688 14.054688 6.808594 14.050781 6.816406 Z M 14.050781 6.816406 " fill-opacity="1" fill-rule="evenodd"/><path fill="#000000" d="M 13.816406 7.488281 C 13.816406 7.488281 14.019531 7.585938 14.226562 7.460938 C 14.234375 7.453125 14.238281 7.441406 14.230469 7.433594 C 14.226562 7.425781 14.214844 7.421875 14.203125 7.429688 C 14.015625 7.542969 13.832031 7.457031 13.832031 7.457031 C 13.820312 7.453125 13.808594 7.457031 13.804688 7.464844 C 13.800781 7.472656 13.804688 7.484375 13.816406 7.488281 Z M 13.816406 7.488281 " fill-opacity="1" fill-rule="evenodd"/><path fill="#000000" d="M 14.1875 7.367188 C 14.1875 7.367188 14.167969 7.441406 14.261719 7.5 C 14.269531 7.503906 14.28125 7.5 14.289062 7.492188 C 14.292969 7.484375 14.289062 7.472656 14.28125 7.464844 C 14.21875 7.425781 14.226562 7.375 14.226562 7.375 C 14.230469 7.367188 14.222656 7.355469 14.210938 7.355469 C 14.199219 7.351562 14.191406 7.359375 14.1875 7.367188 Z M 14.1875 7.367188 " fill-opacity="1" fill-rule="evenodd"/><path fill="#000000" d="M 14.257812 6.789062 C 14.257812 6.789062 14.394531 6.75 14.4375 6.863281 C 14.441406 6.871094 14.453125 6.875 14.464844 6.871094 C 14.472656 6.867188 14.476562 6.859375 14.472656 6.847656 C 14.414062 6.703125 14.246094 6.753906 14.246094 6.753906 C 14.234375 6.757812 14.230469 6.765625 14.230469 6.777344 C 14.234375 6.789062 14.246094 6.792969 14.257812 6.789062 Z M 14.257812 6.789062 " fill-opacity="1" fill-rule="evenodd"/><path fill="#000000" d="M 13.832031 6.648438 C 13.832031 6.648438 13.960938 6.59375 14.019531 6.703125 C 14.023438 6.710938 14.035156 6.714844 14.046875 6.710938 C 14.054688 6.703125 14.058594 6.691406 14.050781 6.683594 C 13.980469 6.546875 13.816406 6.613281 13.816406 6.613281 C 13.804688 6.617188 13.800781 6.628906 13.804688 6.640625 C 13.808594 6.648438 13.820312 6.652344 13.832031 6.648438 Z M 13.832031 6.648438 " fill-opacity="1" fill-rule="evenodd"/><path fill="#703719" d="M 13.671875 6.910156 C 13.671875 6.910156 13.433594 6.8125 13.4375 6.582031 C 13.445312 6.328125 13.660156 6.265625 13.660156 6.265625 C 13.660156 6.265625 13.535156 5.933594 13.863281 5.761719 C 14.105469 5.632812 14.386719 5.792969 14.386719 5.792969 C 14.386719 5.792969 14.542969 5.585938 14.761719 5.65625 C 14.984375 5.730469 15.027344 5.945312 15.027344 5.945312 C 15.027344 5.945312 15.269531 5.820312 15.453125 5.980469 C 15.640625 6.144531 15.542969 6.308594 15.542969 6.308594 C 15.542969 6.308594 15.765625 6.398438 15.761719 6.539062 C 15.757812 6.683594 15.640625 6.777344 15.640625 6.777344 C 15.640625 6.777344 15.734375 6.976562 15.59375 7.183594 C 15.59375 7.183594 15.394531 7.082031 15.078125 7.132812 C 15.078125 7.132812 14.972656 7.238281 14.871094 7.207031 C 14.761719 7.175781 14.789062 6.964844 14.851562 6.816406 C 14.851562 6.816406 14.597656 6.804688 14.582031 6.617188 C 14.582031 6.617188 14.351562 6.566406 14.324219 6.375 C 14.324219 6.375 14.191406 6.484375 14.046875 6.386719 C 14.046875 6.386719 13.921875 6.59375 13.765625 6.566406 Z M 13.671875 6.910156 " fill-opacity="1" fill-rule="evenodd"/><path fill="#000000" d="M 13.761719 7.835938 C 13.761719 7.835938 14.007812 7.964844 14.355469 7.859375 C 14.367188 7.859375 14.375 7.847656 14.371094 7.835938 C 14.367188 7.828125 14.355469 7.824219 14.34375 7.824219 C 14.011719 7.925781 13.78125 7.804688 13.78125 7.804688 C 13.769531 7.800781 13.761719 7.804688 13.753906 7.8125 C 13.75 7.820312 13.753906 7.832031 13.761719 7.835938 Z M 13.761719 7.835938 " fill-opacity="1" fill-rule="evenodd"/><path fill="#019cef" d="M 6.917969 2.867188 L 7.445312 3.074219 L 7.125 4.285156 L 6.875 4.136719 Z M 6.917969 2.867188 " fill-opacity="1" fill-rule="evenodd"/><path fill="#ffdb3b" d="M 13.667969 3.257812 L 13.921875 3.0625 L 14.351562 3.949219 L 13.921875 3.96875 Z M 13.667969 3.257812 " fill-opacity="1" fill-rule="evenodd"/><path fill="#fe860e" d="M 18.261719 1.609375 C 18.261719 1.609375 18.476562 2.433594 18.210938 2.914062 L 17.820312 2.867188 L 18.257812 2.308594 L 17.925781 1.832031 Z M 18.261719 1.609375 " fill-opacity="1" fill-rule="evenodd"/><path fill="#fe5e3a" d="M 8.238281 9.804688 L 8.605469 9.371094 L 8.59375 10.117188 L 9.058594 10.53125 L 8.609375 10.492188 L 8.546875 10.175781 Z M 8.238281 9.804688 " fill-opacity="1" fill-rule="evenodd"/><path fill="#7bc53e" d="M 18.871094 6.6875 L 19.570312 7.410156 C 19.65625 7.496094 19.796875 7.5 19.886719 7.417969 L 21.15625 6.285156 C 21.25 6.203125 21.257812 6.0625 21.175781 5.96875 C 21.089844 5.875 20.945312 5.867188 20.855469 5.953125 L 19.746094 6.941406 L 19.199219 6.375 C 19.113281 6.285156 18.96875 6.28125 18.878906 6.367188 C 18.789062 6.453125 18.785156 6.597656 18.871094 6.6875 Z M 18.871094 6.6875 " fill-opacity="1" fill-rule="evenodd"/><path fill="#ffffff" d="M 22.175781 11.445312 L 22.203125 11.117188 C 22.21875 10.898438 22.382812 10.722656 22.597656 10.6875 C 22.632812 10.679688 22.671875 10.691406 22.699219 10.714844 C 22.792969 10.792969 22.910156 10.839844 23.042969 10.839844 C 23.171875 10.839844 23.289062 10.792969 23.382812 10.71875 C 23.410156 10.691406 23.453125 10.679688 23.488281 10.691406 C 23.6875 10.734375 23.839844 10.898438 23.863281 11.105469 L 23.898438 11.453125 C 23.683594 11.679688 23.378906 11.820312 23.039062 11.820312 C 22.699219 11.820312 22.390625 11.675781 22.175781 11.445312 Z M 22.175781 11.445312 " fill-opacity="1" fill-rule="evenodd"/><path fill="#ffffff" d="M 23.433594 10.320312 C 23.433594 10.425781 23.394531 10.519531 23.316406 10.59375 C 23.242188 10.671875 23.148438 10.707031 23.039062 10.707031 C 22.929688 10.707031 22.839844 10.671875 22.761719 10.59375 C 22.683594 10.519531 22.648438 10.425781 22.648438 10.320312 C 22.648438 10.210938 22.683594 10.121094 22.761719 10.042969 C 22.839844 9.96875 22.929688 9.929688 23.039062 9.929688 C 23.148438 9.929688 23.242188 9.96875 23.316406 10.042969 C 23.394531 10.121094 23.433594 10.210938 23.433594 10.320312 Z M 23.433594 10.320312 " fill-opacity="1" fill-rule="nonzero"/><path fill="#ffffff" d="M 13.914062 8.335938 L 13.914062 8.636719 L 13.707031 8.503906 Z M 13.914062 8.335938 " fill-opacity="1" fill-rule="evenodd"/><path fill="#000000" d="M 13.933594 8.335938 C 13.933594 8.332031 13.929688 8.324219 13.921875 8.320312 C 13.914062 8.316406 13.90625 8.316406 13.902344 8.320312 L 13.691406 8.488281 C 13.6875 8.492188 13.683594 8.5 13.683594 8.507812 C 13.6875 8.511719 13.6875 8.519531 13.695312 8.519531 L 13.902344 8.652344 C 13.910156 8.65625 13.917969 8.65625 13.921875 8.652344 C 13.929688 8.648438 13.933594 8.644531 13.933594 8.636719 Z M 13.894531 8.375 L 13.894531 8.601562 L 13.738281 8.503906 Z M 13.894531 8.375 " fill-opacity="1" fill-rule="evenodd"/><path fill="#ffffff" d="M 14.253906 8.523438 L 14 8.664062 L 14.253906 8.820312 Z M 14.253906 8.523438 " fill-opacity="1" fill-rule="evenodd"/><path fill="#000000" d="M 14.273438 8.523438 C 14.273438 8.515625 14.269531 8.511719 14.265625 8.507812 C 14.257812 8.503906 14.25 8.503906 14.246094 8.507812 L 13.992188 8.648438 C 13.988281 8.648438 13.984375 8.65625 13.980469 8.664062 C 13.980469 8.671875 13.984375 8.675781 13.992188 8.679688 L 14.246094 8.835938 C 14.25 8.839844 14.257812 8.839844 14.265625 8.835938 C 14.269531 8.832031 14.273438 8.824219 14.273438 8.820312 Z M 14.238281 8.554688 L 14.238281 8.785156 L 14.039062 8.664062 Z M 14.238281 8.554688 " fill-opacity="1" fill-rule="evenodd"/><path fill="#fe860e" d="M 13.574219 8.714844 L 13.527344 8.488281 L 13.765625 8.335938 L 13.855469 8.542969 Z M 13.574219 8.714844 " fill-opacity="1" fill-rule="evenodd"/><path fill="#fe860e" d="M 14.175781 8.738281 L 14.332031 8.6875 L 14.332031 9.023438 L 14.128906 9.066406 Z M 14.175781 8.738281 " fill-opacity="1" fill-rule="evenodd"/><path fill="#000000" d="M 13.039062 10.621094 L 12.683594 11.675781 C 12.65625 11.683594 12.570312 11.726562 12.515625 11.832031 C 12.476562 11.914062 12.457031 12.03125 12.507812 12.195312 C 12.488281 12.214844 12.4375 12.261719 12.402344 12.332031 C 12.371094 12.390625 12.351562 12.460938 12.371094 12.539062 C 12.375 12.550781 12.382812 12.554688 12.394531 12.554688 C 12.40625 12.550781 12.414062 12.542969 12.410156 12.53125 C 12.394531 12.460938 12.410156 12.398438 12.4375 12.347656 C 12.480469 12.269531 12.542969 12.21875 12.542969 12.21875 C 12.546875 12.210938 12.550781 12.203125 12.550781 12.195312 C 12.5 12.035156 12.515625 11.925781 12.550781 11.847656 C 12.605469 11.738281 12.707031 11.707031 12.707031 11.707031 C 12.710938 11.703125 12.71875 11.699219 12.71875 11.691406 L 13.074219 10.632812 C 13.078125 10.625 13.074219 10.613281 13.0625 10.609375 C 13.050781 10.609375 13.042969 10.613281 13.039062 10.621094 Z M 13.039062 10.621094 " fill-opacity="1" fill-rule="evenodd"/><path fill="#5679b0" d="M 15.171875 8.699219 C 15.707031 9.003906 16.03125 9.335938 16.03125 9.335938 C 16.464844 9.648438 16.679688 10.417969 16.679688 10.417969 C 17.164062 10.988281 17.542969 12.535156 17.542969 12.535156 C 18.238281 13.664062 18.082031 15.816406 18.082031 15.816406 C 18.5 16.808594 17.15625 16.804688 16.78125 16.707031 C 16.410156 16.613281 16.546875 16.320312 16.546875 16.320312 C 16.21875 15.839844 16.449219 15.550781 16.449219 15.550781 C 16.0625 14.988281 16.15625 14.316406 16.15625 14.316406 C 15.921875 14.046875 15.988281 13.546875 15.988281 13.546875 C 15.859375 13.445312 15.851562 13.277344 15.851562 13.277344 C 15.542969 12.996094 15.363281 12.503906 15.363281 12.503906 C 15.40625 12.675781 15.371094 12.917969 15.371094 12.917969 C 15.71875 13.746094 15.570312 14.375 15.496094 14.59375 C 15.476562 14.648438 15.433594 14.691406 15.375 14.707031 C 14.976562 14.828125 14.5 14.777344 14.289062 14.742188 C 14.21875 14.734375 14.160156 14.683594 14.140625 14.617188 C 13.964844 14.046875 13.921875 13.339844 13.960938 12.605469 C 14.375 12.03125 14.839844 10.78125 14.839844 10.78125 L 14.574219 10.308594 L 14.96875 10.019531 C 15.046875 9.703125 15.167969 8.726562 15.171875 8.699219 Z M 15.171875 8.699219 " fill-opacity="1" fill-rule="evenodd"/><path fill="#000000" d="M 15.871094 13.277344 C 15.871094 13.277344 15.875 13.132812 15.976562 13.054688 C 15.988281 13.050781 15.988281 13.039062 15.980469 13.03125 C 15.976562 13.023438 15.964844 13.019531 15.957031 13.027344 C 15.835938 13.113281 15.832031 13.277344 15.832031 13.277344 C 15.832031 13.289062 15.839844 13.296875 15.847656 13.296875 C 15.859375 13.296875 15.871094 13.289062 15.871094 13.277344 Z M 15.871094 13.277344 " fill-opacity="1" fill-rule="evenodd"/><path fill="#000000" d="M 9.734375 15.84375 C 9.734375 15.84375 9.527344 15.878906 9.347656 15.90625 C 9.335938 15.90625 9.328125 15.917969 9.328125 15.929688 C 9.332031 15.9375 9.339844 15.945312 9.351562 15.945312 C 9.535156 15.917969 9.742188 15.878906 9.742188 15.878906 C 9.753906 15.878906 9.757812 15.871094 9.757812 15.859375 C 9.757812 15.847656 9.746094 15.839844 9.734375 15.84375 Z M 9.734375 15.84375 " fill-opacity="1" fill-rule="evenodd"/><path fill="#000000" d="M 9.707031 16.003906 C 9.707031 16.003906 9.628906 16.046875 9.382812 16.273438 C 9.375 16.28125 9.375 16.292969 9.378906 16.300781 C 9.386719 16.308594 9.398438 16.308594 9.40625 16.304688 C 9.652344 16.082031 9.726562 16.039062 9.726562 16.039062 C 9.734375 16.03125 9.738281 16.019531 9.734375 16.011719 C 9.730469 16.003906 9.714844 16 9.707031 16.003906 Z M 9.707031 16.003906 " fill-opacity="1" fill-rule="evenodd"/><path fill="#1b3e77" d="M 14.003906 22.644531 C 14.003906 22.644531 14.246094 22.734375 14.363281 22.992188 C 14.480469 23.246094 14.679688 23.824219 14.679688 23.824219 L 14.523438 24.382812 L 13.351562 25.480469 L 12.460938 26.28125 L 11.886719 26.714844 C 11.886719 26.714844 11.214844 26.808594 11.171875 26.433594 C 11.128906 26.058594 11.496094 25.453125 11.574219 25.289062 C 11.652344 25.125 12.566406 23.480469 12.566406 23.480469 L 12.875 23.453125 C 12.875 23.453125 13.007812 23.195312 13.25 23.167969 C 13.488281 23.140625 13.953125 23.007812 14.003906 22.644531 Z M 14.003906 22.644531 " fill-opacity="1" fill-rule="evenodd"/><path fill="#019cef" d="M 11.566406 25.320312 C 11.566406 25.320312 11.972656 25.3125 12.390625 25.414062 C 12.667969 25.480469 12.953125 25.597656 13.125 25.796875 C 13.128906 25.804688 13.140625 25.804688 13.148438 25.796875 C 13.15625 25.792969 13.160156 25.78125 13.152344 25.773438 C 12.976562 25.566406 12.683594 25.445312 12.402344 25.375 C 11.976562 25.273438 11.566406 25.28125 11.566406 25.28125 C 11.558594 25.28125 11.550781 25.292969 11.550781 25.300781 C 11.550781 25.3125 11.558594 25.320312 11.566406 25.320312 Z M 11.566406 25.320312 " fill-opacity="1" fill-rule="evenodd"/><path fill="#019cef" d="M 11.566406 25.300781 C 11.566406 25.300781 12 23.78125 12.121094 23.449219 C 12.242188 23.117188 12.636719 22.96875 12.960938 23.332031 C 12.960938 23.332031 12.847656 23.433594 12.65625 23.882812 C 12.46875 24.332031 12.0625 25.324219 12.0625 25.324219 Z M 11.566406 25.300781 " fill-opacity="1" fill-rule="evenodd"/><path fill="#cbdaf3" d="M 14.679688 23.824219 C 14.679688 23.824219 14.859375 24.035156 14.847656 24.265625 C 14.832031 24.492188 14.300781 24.960938 14.199219 25.023438 C 14.097656 25.085938 13.859375 25.101562 13.859375 25.101562 C 13.859375 25.101562 12 27.617188 11.214844 26.558594 C 11.214844 26.558594 11.507812 26.859375 12.167969 26.410156 C 12.828125 25.960938 14.679688 23.824219 14.679688 23.824219 Z M 14.679688 23.824219 " fill-opacity="1" fill-rule="evenodd"/><path fill="#fe9f3a" d="M 20.550781 19.148438 C 20.4375 18.84375 20.097656 18.683594 19.785156 18.792969 C 18.753906 19.164062 16.5625 19.949219 15.53125 20.316406 C 15.222656 20.425781 15.0625 20.765625 15.175781 21.074219 L 16.34375 24.285156 C 16.453125 24.59375 16.796875 24.75 17.105469 24.640625 C 18.136719 24.269531 20.328125 23.488281 21.359375 23.117188 C 21.667969 23.007812 21.828125 22.667969 21.71875 22.359375 C 21.414062 21.53125 20.851562 19.980469 20.550781 19.148438 Z M 20.550781 19.148438 " fill-opacity="1" fill-rule="evenodd"/><path fill="#000000" d="M 20.980469 20.277344 C 20.808594 19.800781 20.6875 19.476562 20.566406 19.144531 C 20.453125 18.828125 20.097656 18.664062 19.78125 18.777344 C 18.746094 19.148438 16.558594 19.929688 15.523438 20.300781 C 15.207031 20.414062 15.042969 20.765625 15.15625 21.082031 C 15.277344 21.414062 15.40625 21.765625 15.578125 22.238281 C 15.582031 22.25 15.59375 22.253906 15.601562 22.25 C 15.613281 22.246094 15.617188 22.234375 15.613281 22.226562 C 15.441406 21.753906 15.3125 21.402344 15.191406 21.066406 C 15.082031 20.769531 15.238281 20.441406 15.539062 20.335938 C 16.570312 19.964844 18.761719 19.183594 19.792969 18.8125 C 20.09375 18.707031 20.421875 18.859375 20.53125 19.15625 C 20.652344 19.492188 20.769531 19.816406 20.941406 20.289062 C 20.945312 20.300781 20.957031 20.304688 20.96875 20.300781 C 20.980469 20.296875 20.984375 20.285156 20.980469 20.277344 Z M 20.980469 20.277344 " fill-opacity="1" fill-rule="evenodd"/><path fill="#ee7701" d="M 21.007812 20.410156 L 15.632812 22.335938 C 15.632812 22.335938 16.074219 23.546875 16.339844 24.285156 C 16.453125 24.59375 16.792969 24.753906 17.101562 24.640625 C 18.136719 24.273438 20.328125 23.488281 21.359375 23.117188 C 21.667969 23.007812 21.828125 22.667969 21.714844 22.363281 C 21.449219 21.621094 21.007812 20.410156 21.007812 20.410156 Z M 21.007812 20.410156 " fill-opacity="1" fill-rule="evenodd"/><path fill="#703719" d="M 17.378906 19.65625 L 16.964844 19.804688 C 16.964844 19.804688 17.480469 21.21875 17.679688 21.761719 C 17.71875 21.875 17.84375 21.933594 17.960938 21.890625 C 18.074219 21.851562 18.132812 21.726562 18.09375 21.613281 C 17.894531 21.070312 17.378906 19.65625 17.378906 19.65625 Z M 17.378906 19.65625 " fill-opacity="1" fill-rule="evenodd"/><path fill="#703719" d="M 18.578125 19.226562 L 18.164062 19.375 C 18.164062 19.375 18.679688 20.792969 18.875 21.332031 C 18.917969 21.445312 19.042969 21.503906 19.15625 21.464844 C 19.273438 21.421875 19.332031 21.296875 19.289062 21.183594 C 19.09375 20.644531 18.578125 19.226562 18.578125 19.226562 Z M 18.578125 19.226562 " fill-opacity="1" fill-rule="evenodd"/><path fill="#ffffff" d="M 14.703125 8.464844 L 14.253906 8.523438 L 14.253906 9.175781 L 14.613281 9.175781 Z M 14.703125 8.464844 " fill-opacity="1" fill-rule="evenodd"/><path fill="#000000" d="M 14.722656 8.464844 C 14.722656 8.460938 14.722656 8.453125 14.71875 8.449219 C 14.714844 8.445312 14.707031 8.441406 14.703125 8.441406 L 14.253906 8.503906 C 14.242188 8.503906 14.238281 8.511719 14.238281 8.523438 L 14.238281 9.171875 C 14.238281 9.179688 14.238281 9.183594 14.242188 9.1875 C 14.246094 9.191406 14.25 9.191406 14.253906 9.191406 L 14.613281 9.191406 C 14.625 9.191406 14.632812 9.183594 14.632812 9.175781 Z M 14.683594 8.484375 L 14.597656 9.152344 L 14.273438 9.152344 L 14.273438 8.539062 Z M 14.683594 8.484375 " fill-opacity="1" fill-rule="evenodd"/><path fill="#ffffff" d="M 13.648438 8.050781 L 13.914062 8.335938 L 13.375 8.769531 L 13.082031 8.484375 L 13.375 8.144531 Z M 13.648438 8.050781 " fill-opacity="1" fill-rule="evenodd"/><path fill="#000000" d="M 13.660156 8.039062 C 13.65625 8.03125 13.648438 8.03125 13.640625 8.03125 L 13.367188 8.125 C 13.363281 8.128906 13.359375 8.128906 13.359375 8.132812 L 13.070312 8.46875 C 13.0625 8.480469 13.0625 8.488281 13.070312 8.496094 L 13.363281 8.78125 C 13.371094 8.789062 13.382812 8.789062 13.386719 8.785156 L 13.925781 8.351562 C 13.933594 8.347656 13.933594 8.34375 13.933594 8.335938 C 13.9375 8.332031 13.933594 8.328125 13.929688 8.324219 Z M 13.640625 8.074219 L 13.886719 8.335938 L 13.378906 8.746094 L 13.109375 8.484375 L 13.382812 8.160156 Z M 13.640625 8.074219 " fill-opacity="1" fill-rule="evenodd"/><path fill="#7b97c1" d="M 13.957031 12.609375 C 14.050781 10.621094 14.699219 8.46875 14.699219 8.46875 C 14.871094 8.539062 15.027344 8.617188 15.171875 8.699219 C 15.167969 8.726562 15.042969 9.703125 14.96875 10.019531 L 14.570312 10.308594 L 14.835938 10.78125 C 14.835938 10.78125 14.375 12.03125 13.957031 12.609375 Z M 13.957031 12.609375 " fill-opacity="1" fill-rule="evenodd"/><path fill="#000000" d="M 14.5625 10.292969 L 14.296875 10.445312 C 14.289062 10.449219 14.285156 10.460938 14.289062 10.46875 C 14.292969 10.480469 14.308594 10.484375 14.316406 10.476562 L 14.582031 10.324219 C 14.589844 10.320312 14.59375 10.308594 14.585938 10.300781 C 14.582031 10.289062 14.570312 10.285156 14.5625 10.292969 Z M 14.5625 10.292969 " fill-opacity="1" fill-rule="evenodd"/><path fill="#7b97c1" d="M 15.320312 13.511719 L 14.277344 13.632812 L 14.257812 13.445312 L 15.300781 13.324219 Z M 15.320312 13.511719 " fill-opacity="1" fill-rule="evenodd"/><path fill="#42608d" d="M 15.367188 12.488281 C 15.367188 12.488281 15.125 12.050781 15.066406 11.570312 C 15.066406 11.570312 14.914062 12.394531 15.359375 12.917969 C 15.359375 12.917969 15.421875 12.742188 15.367188 12.488281 Z M 15.367188 12.488281 " fill-opacity="1" fill-rule="evenodd"/><path fill="#000000" d="M 15.378906 12.496094 C 15.378906 12.496094 15.160156 12.097656 15.078125 11.578125 C 15.078125 11.570312 15.066406 11.5625 15.058594 11.5625 C 15.046875 11.566406 15.039062 11.574219 15.039062 11.585938 C 15.121094 12.109375 15.34375 12.515625 15.34375 12.515625 C 15.347656 12.523438 15.359375 12.527344 15.367188 12.523438 C 15.378906 12.515625 15.382812 12.503906 15.378906 12.496094 Z M 15.378906 12.496094 " fill-opacity="1" fill-rule="evenodd"/><path fill="#e2e2e2" d="M 13.132812 8.523438 C 13.132812 8.523438 11.71875 11.296875 11.589844 12.75 C 11.589844 12.75 11.402344 12.683594 11.113281 12.390625 C 11.113281 12.390625 11.96875 9.507812 13.132812 8.523438 Z M 13.132812 8.523438 " fill-opacity="1" fill-rule="evenodd"/><path fill="#000000" d="M 12.265625 9.789062 C 12.253906 9.789062 12.25 9.785156 12.246094 9.777344 L 12.171875 9.59375 C 12.167969 9.582031 12.171875 9.570312 12.183594 9.566406 C 12.191406 9.5625 12.203125 9.570312 12.207031 9.578125 L 12.28125 9.765625 C 12.285156 9.773438 12.28125 9.785156 12.269531 9.789062 C 12.269531 9.789062 12.265625 9.789062 12.265625 9.789062 Z M 12.265625 9.789062 " fill-opacity="1" fill-rule="nonzero"/><path fill="#5679b0" d="M 11.59375 11.4375 C 11.433594 11.894531 11.300781 12.375 11.214844 12.875 C 11.207031 12.933594 11.171875 12.988281 11.121094 13.023438 C 11.070312 13.058594 11.007812 13.070312 10.949219 13.058594 C 10.679688 13.007812 10.238281 12.828125 9.898438 12.199219 C 9.871094 12.152344 9.863281 12.09375 9.878906 12.039062 C 9.957031 11.738281 10.273438 10.695312 11.046875 10.140625 C 11.046875 10.140625 11.128906 9.789062 11.3125 9.648438 C 11.3125 9.648438 10.675781 9.316406 10.4375 8.769531 C 10.4375 8.769531 9.960938 8.511719 9.847656 7.875 C 9.847656 7.875 8.617188 6.359375 9.894531 4.25 C 9.894531 4.25 9.554688 3.960938 10.476562 2.988281 C 10.476562 2.988281 10.53125 2.4375 10.925781 2.425781 C 11.316406 2.414062 12.523438 3.011719 11.898438 3.425781 C 11.898438 3.425781 12.078125 3.914062 11.691406 4.082031 C 11.691406 4.082031 11.6875 5.070312 11.285156 5.617188 C 11.285156 5.617188 11.371094 5.808594 11.269531 5.980469 C 11.269531 5.980469 11.5 6.140625 11.484375 6.488281 C 11.484375 6.488281 12.210938 7.179688 12.527344 7.96875 C 12.527344 7.96875 12.835938 7.957031 13.132812 8.027344 C 12.957031 8.199219 12.390625 8.773438 12.066406 9.21875 L 12.191406 9.585938 L 11.691406 9.867188 C 11.691406 9.867188 11.582031 10.652344 11.59375 11.4375 Z M 11.59375 11.4375 " fill-opacity="1" fill-rule="evenodd"/><path fill="#000000" d="M 11.28125 5.96875 L 10.949219 5.722656 C 10.941406 5.71875 10.929688 5.71875 10.921875 5.730469 C 10.917969 5.738281 10.917969 5.75 10.925781 5.753906 L 11.257812 5.996094 C 11.265625 6.003906 11.277344 6 11.285156 5.992188 C 11.292969 5.984375 11.289062 5.972656 11.28125 5.96875 Z M 11.28125 5.96875 " fill-opacity="1" fill-rule="evenodd"/><path fill="#42608d" d="M 12.046875 8.527344 C 12.046875 8.527344 11.664062 8.648438 11.382812 9.25 C 11.382812 9.25 11.164062 9.308594 11.09375 9.511719 C 11.09375 9.511719 11.234375 9.609375 11.316406 9.652344 C 11.316406 9.652344 11.40625 9.566406 11.519531 9.519531 C 11.519531 9.519531 11.679688 8.917969 12.046875 8.527344 Z M 12.046875 8.527344 " fill-opacity="1" fill-rule="evenodd"/><path fill="#000000" d="M 11.324219 9.664062 C 11.324219 9.664062 11.4375 9.578125 11.519531 9.539062 C 11.523438 9.535156 11.527344 9.53125 11.53125 9.527344 C 11.53125 9.527344 11.707031 8.902344 12.078125 8.539062 C 12.089844 8.53125 12.089844 8.519531 12.078125 8.511719 C 12.074219 8.503906 12.0625 8.503906 12.054688 8.511719 C 11.699219 8.855469 11.515625 9.433594 11.496094 9.507812 C 11.414062 9.550781 11.300781 9.632812 11.300781 9.632812 C 11.292969 9.640625 11.289062 9.652344 11.296875 9.660156 C 11.304688 9.667969 11.316406 9.667969 11.324219 9.664062 Z M 11.324219 9.664062 " fill-opacity="1" fill-rule="evenodd"/><path fill="#7b97c1" d="M 13.132812 8.027344 C 13.234375 8.050781 13.332031 8.082031 13.417969 8.128906 C 13.417969 8.128906 12.265625 9.542969 11.59375 11.4375 C 11.582031 10.652344 11.691406 9.867188 11.691406 9.867188 L 12.191406 9.585938 L 12.066406 9.21875 C 12.390625 8.773438 12.957031 8.199219 13.132812 8.027344 Z M 13.132812 8.027344 " fill-opacity="1" fill-rule="evenodd"/><path fill="#7b97c1" d="M 11.15625 11.679688 L 11.050781 11.859375 L 10.273438 11.40625 L 10.378906 11.230469 Z M 11.15625 11.679688 " fill-opacity="1" fill-rule="evenodd"/><path fill="#000000" d="M 11.289062 12.578125 C 11.289062 12.578125 11.632812 12.914062 12.152344 12.890625 C 12.199219 12.964844 12.5 13.414062 13.21875 13.304688 C 13.25 13.332031 13.375 13.453125 13.539062 13.550781 C 13.667969 13.625 13.816406 13.683594 13.964844 13.675781 C 13.972656 13.675781 13.980469 13.667969 13.980469 13.660156 C 13.980469 13.648438 13.972656 13.640625 13.960938 13.640625 C 13.824219 13.644531 13.683594 13.589844 13.558594 13.519531 C 13.375 13.410156 13.238281 13.273438 13.238281 13.273438 C 13.234375 13.269531 13.226562 13.265625 13.222656 13.265625 C 12.464844 13.386719 12.179688 12.863281 12.179688 12.863281 C 12.179688 12.855469 12.171875 12.855469 12.164062 12.855469 C 11.652344 12.878906 11.316406 12.550781 11.316406 12.550781 C 11.308594 12.542969 11.300781 12.542969 11.292969 12.550781 C 11.285156 12.5625 11.285156 12.570312 11.289062 12.578125 Z M 11.289062 12.578125 " fill-opacity="1" fill-rule="evenodd"/><path fill="#e2e2e2" d="M 11.808594 11.585938 C 11.808594 11.585938 12.714844 11.574219 13.078125 10.601562 L 11.945312 10.957031 Z M 11.808594 11.585938 " fill-opacity="1" fill-rule="evenodd"/><path fill="#fe860e" d="M 9.945312 11.257812 L 10.222656 10.78125 C 10.222656 10.78125 10.496094 10.507812 11.089844 10.582031 C 11.683594 10.65625 12.191406 10.785156 12.761719 10.230469 C 13.328125 9.675781 13.566406 9.105469 13.566406 9.105469 L 13.769531 9.121094 L 13.792969 9.246094 C 13.792969 9.246094 13.292969 10.761719 12.40625 11.179688 C 11.515625 11.59375 11.132812 11.140625 10.363281 11.511719 Z M 9.945312 11.257812 " fill-opacity="1" fill-rule="evenodd"/><path fill="#fe9f3a" d="M 13.574219 8.714844 L 13.855469 8.542969 L 14.175781 8.734375 L 14.128906 9.066406 L 13.792969 9.246094 L 13.566406 9.105469 Z M 13.574219 8.714844 " fill-opacity="1" fill-rule="evenodd"/><path fill="#000000" d="M 3.71875 11.324219 L 6.441406 10.234375 C 6.449219 10.230469 6.453125 10.222656 6.449219 10.210938 L 6.089844 9.324219 C 6.085938 9.316406 6.074219 9.3125 6.066406 9.316406 C 6.058594 9.320312 6.054688 9.328125 6.058594 9.339844 L 6.410156 10.207031 C 6.183594 10.300781 3.703125 11.289062 3.703125 11.289062 C 3.695312 11.292969 3.691406 11.304688 3.695312 11.3125 C 3.699219 11.320312 3.707031 11.328125 3.71875 11.324219 Z M 3.71875 11.324219 " fill-opacity="1" fill-rule="evenodd"/><path fill="#000000" d="M 9.640625 18.617188 L 9.652344 18.441406 C 9.65625 18.429688 9.644531 18.421875 9.636719 18.421875 C 9.625 18.417969 9.617188 18.425781 9.617188 18.4375 L 9.601562 18.617188 C 9.601562 18.625 9.609375 18.632812 9.621094 18.632812 C 9.628906 18.632812 9.636719 18.625 9.640625 18.617188 Z M 9.640625 18.617188 " fill-opacity="1" fill-rule="evenodd"/><path fill="#000000" d="M 13.472656 18.511719 L 13.296875 18.636719 C 13.289062 18.644531 13.285156 18.652344 13.292969 18.660156 C 13.296875 18.671875 13.308594 18.671875 13.316406 18.664062 L 13.492188 18.539062 C 13.5 18.535156 13.503906 18.523438 13.496094 18.515625 C 13.492188 18.507812 13.480469 18.507812 13.472656 18.511719 Z M 13.472656 18.511719 " fill-opacity="1" fill-rule="evenodd"/><path fill="#000000" d="M 13.535156 18.007812 L 13.386719 18.09375 C 13.378906 18.097656 13.375 18.109375 13.378906 18.117188 C 13.382812 18.125 13.394531 18.128906 13.402344 18.125 L 13.550781 18.039062 C 13.5625 18.035156 13.5625 18.023438 13.558594 18.015625 C 13.554688 18.007812 13.539062 18.003906 13.535156 18.007812 Z M 13.535156 18.007812 " fill-opacity="1" fill-rule="evenodd"/><path fill="#019cef" d="M 14.453125 23.234375 C 14.453125 23.234375 14.125 23.730469 14.3125 24.230469 C 14.316406 24.238281 14.324219 24.242188 14.335938 24.238281 C 14.34375 24.234375 14.347656 24.226562 14.347656 24.214844 C 14.167969 23.734375 14.484375 23.253906 14.484375 23.253906 C 14.488281 23.246094 14.488281 23.234375 14.480469 23.230469 C 14.46875 23.222656 14.457031 23.226562 14.453125 23.234375 Z M 14.453125 23.234375 " fill-opacity="1" fill-rule="evenodd"/><path fill="#000000" d="M 11.773438 22.109375 L 11.914062 21.960938 C 11.921875 21.953125 11.921875 21.945312 11.914062 21.9375 C 11.90625 21.929688 11.894531 21.929688 11.890625 21.9375 L 11.746094 22.082031 C 11.742188 22.089844 11.742188 22.101562 11.746094 22.109375 C 11.753906 22.117188 11.765625 22.117188 11.773438 22.109375 Z M 11.773438 22.109375 " fill-opacity="1" fill-rule="evenodd"/><path fill="#000000" d="M 16.117188 22.179688 L 17.632812 21.636719 C 17.640625 21.632812 17.644531 21.621094 17.640625 21.613281 C 17.636719 21.601562 17.625 21.597656 17.617188 21.601562 L 16.101562 22.144531 C 16.09375 22.148438 16.089844 22.15625 16.09375 22.167969 C 16.097656 22.175781 16.105469 22.179688 16.117188 22.179688 Z M 16.117188 22.179688 " fill-opacity="1" fill-rule="evenodd"/><path fill="#000000" d="M 16.019531 13.519531 C 16.019531 13.519531 16.019531 13.488281 16.035156 13.457031 C 16.042969 13.4375 16.054688 13.421875 16.078125 13.410156 C 16.089844 13.40625 16.09375 13.394531 16.089844 13.382812 C 16.085938 13.375 16.074219 13.371094 16.066406 13.375 C 15.984375 13.414062 15.984375 13.519531 15.984375 13.519531 C 15.984375 13.527344 15.992188 13.539062 16.003906 13.539062 C 16.011719 13.539062 16.019531 13.527344 16.019531 13.519531 Z M 16.019531 13.519531 " fill-opacity="1" fill-rule="evenodd"/><path fill="#000000" d="M 11.277344 5.582031 L 11.089844 5.484375 C 11.082031 5.476562 11.070312 5.480469 11.066406 5.492188 C 11.0625 5.5 11.0625 5.511719 11.074219 5.515625 L 11.257812 5.617188 C 11.265625 5.621094 11.277344 5.617188 11.285156 5.609375 C 11.289062 5.597656 11.285156 5.589844 11.277344 5.582031 Z M 11.277344 5.582031 " fill-opacity="1" fill-rule="evenodd"/></svg>